<svg width="78" height="78" viewBox="0 0 78 78" fill="none" xmlns="http://www.w3.org/2000/svg">
<g filter="url(#filter0_d_1021_18902)">
<path d="M9 37C9 20.4315 22.4315 7 39 7V7C55.5685 7 69 20.4315 69 37V37C69 53.5685 55.5685 67 39 67V67C22.4315 67 9 53.5685 9 37V37Z" fill="#27AE60" shape-rendering="crispEdges"/>
<path d="M31.9213 44.2241L24.1473 36.45L21.5 39.0787L31.9213 49.5L54.2927 27.1286L51.6641 24.5L31.9213 44.2241Z" fill="white"/>
<path d="M39 65.8889C23.0451 65.8889 10.1111 52.9549 10.1111 37H7.88889C7.88889 54.1822 21.8178 68.1111 39 68.1111V65.8889ZM67.8889 37C67.8889 52.9549 54.9549 65.8889 39 65.8889V68.1111C56.1822 68.1111 70.1111 54.1822 70.1111 37H67.8889ZM39 8.11111C54.9549 8.11111 67.8889 21.0451 67.8889 37H70.1111C70.1111 19.8178 56.1822 5.88889 39 5.88889V8.11111ZM39 5.88889C21.8178 5.88889 7.88889 19.8178 7.88889 37H10.1111C10.1111 21.0451 23.0451 8.11111 39 8.11111V5.88889Z" fill="white" fill-opacity="0.5"/>
</g>
<defs>
<filter id="filter0_d_1021_18902" x="0.481509" y="0.33333" width="77.037" height="77.037" filterUnits="userSpaceOnUse" color-interpolation-filters="sRGB">
<feFlood flood-opacity="0" result="BackgroundImageFix"/>
<feColorMatrix in="SourceAlpha" type="matrix" values="0 0 0 0 0 0 0 0 0 0 0 0 0 0 0 0 0 0 127 0" result="hardAlpha"/>
<feOffset dy="1.85185"/>
<feGaussianBlur stdDeviation="3.7037"/>
<feComposite in2="hardAlpha" operator="out"/>
<feColorMatrix type="matrix" values="0 0 0 0 0 0 0 0 0 0 0 0 0 0 0 0 0 0 0.1 0"/>
<feBlend mode="normal" in2="BackgroundImageFix" result="effect1_dropShadow_1021_18902"/>
<feBlend mode="normal" in="SourceGraphic" in2="effect1_dropShadow_1021_18902" result="shape"/>
</filter>
</defs>
</svg>
