<svg width="81" height="80" viewBox="0 0 81 80" fill="none" xmlns="http://www.w3.org/2000/svg">
<rect x="0.5" width="80" height="80" rx="10" fill="#DAB9E6"/>
<path d="M54.5748 41.3493C49.9756 41.3493 46.25 45.0755 46.25 49.6752C46.25 54.2755 49.9756 58 54.5748 58C59.174 58 62.8997 54.2755 62.8997 49.6752C62.8997 45.0755 59.174 41.3493 54.5748 41.3493ZM54.5748 54.3005C52.0197 54.3005 49.9501 52.2298 49.9501 49.6752C49.9501 47.1212 52.0197 45.0505 54.5748 45.0505C57.13 45.0505 59.1996 47.1212 59.1996 49.6752C59.1996 52.2298 57.13 54.3005 54.5748 54.3005Z" fill="#455A64"/>
<path d="M26.8248 41.3493C22.2251 41.3493 18.5 45.0755 18.5 49.6752C18.5 54.2755 22.2251 58 26.8248 58C31.4246 58 35.1497 54.2755 35.1497 49.6752C35.1497 45.0755 31.4246 41.3493 26.8248 41.3493ZM26.8248 54.3005C24.2702 54.3005 22.2001 52.2298 22.2001 49.6752C22.2001 47.1212 24.2702 45.0505 26.8248 45.0505C29.3794 45.0505 31.4496 47.1212 31.4496 49.6752C31.4496 52.2298 29.3794 54.3005 26.8248 54.3005Z" fill="#455A64"/>
<path d="M31.064 51.5257C30.6494 52.4736 29.9268 53.2556 29.0222 53.7457H34.0837C34.4689 53.0597 34.7569 52.3133 34.9373 51.5257H31.064Z" fill="#263238"/>
<path d="M54.8663 45.0638C55.9341 45.131 56.9025 45.5594 57.6529 46.2287L55.9197 41.4675C55.4812 41.3959 55.0345 41.3493 54.576 41.3493C54.2242 41.3493 53.879 41.3737 53.5388 41.4159L54.8663 45.0638Z" fill="#263238"/>
<path d="M50.0633 42.6857C49.3939 43.1191 48.7884 43.6452 48.2701 44.248L50.0039 49.0114C50.1543 47.9619 50.6604 47.029 51.3908 46.3308L50.0633 42.6857Z" fill="#263238"/>
<path d="M32.5446 36.7243H29.6003V39.4992H33.5546L32.5446 36.7243Z" fill="#FF9F0F"/>
<path d="M32.5421 36.7243H30.6524L31.6619 39.4992H33.5522L32.5421 36.7243Z" fill="#FF820F"/>
<path d="M56.6269 49.9099L49.4436 30.174L45.9677 31.4382L46.8818 33.949H34.4878L33.4783 31.174H30.5241L36.5823 47.8248H24.9736V51.5249H36.998C39.0326 51.5249 41.5434 50.0908 42.5734 48.3348L48.4696 38.3118L53.151 51.1747L56.6269 49.9099ZM39.3828 46.4629C39.3262 46.5594 39.2424 46.6577 39.1469 46.7559L35.4968 36.7245H45.112L39.3828 46.4629Z" fill="#70BDC8"/>
<path d="M49.4448 30.1726L45.9694 31.4371L46.7284 33.5232L50.2038 32.2587L49.4448 30.1726Z" fill="#47A1AE"/>
<path d="M52.7234 21L51.7982 25.3794L44.7021 27.9629L45.9681 31.4388L55.4983 27.9701V21H52.7234Z" fill="#21707B"/>
<path d="M33.4789 31.1744H30.5247L31.3322 33.3944H34.2869L33.4789 31.1744Z" fill="#47A1AE"/>
<path d="M35.1497 27.4752H27.75C26.7271 27.4752 25.8997 28.3022 25.8997 29.325V30.2502L30.5249 31.1748H36.9994V29.325C36.9994 28.3022 36.1725 27.4752 35.1497 27.4752Z" fill="#21707B"/>
<path d="M46.8833 33.9493H44.5207L47.0109 40.7929L48.4705 38.3121L46.8833 33.9493Z" fill="#47A1AE"/>
</svg>
