<svg width="80" height="80" viewBox="0 0 80 80" fill="none" xmlns="http://www.w3.org/2000/svg">
<rect width="80" height="80" rx="10" fill="#EFD952"/>
<g clip-path="url(#clip0_1574_5764)">
<path d="M15.8877 60.333C16.583 60.5645 17.3416 60.5119 17.9982 60.1866C18.6549 59.8613 19.1564 59.2897 19.3934 58.5963L26.3699 38.209L21.1274 36.4211L14.151 56.8084C14.0335 57.1538 13.9852 57.519 14.0089 57.8832C14.0326 58.2473 14.1278 58.6032 14.2891 58.9305C14.4504 59.2578 14.6746 59.5501 14.9489 59.7908C15.2232 60.0314 15.5422 60.2157 15.8877 60.333Z" fill="#00263B"/>
<path d="M19.5822 24.2942H16.8477C15.275 24.2942 14 25.5692 14 27.1419V35.9063C14 37.4791 15.275 38.754 16.8477 38.754H19.5822C21.155 38.754 22.43 37.4791 22.43 35.9063V27.1419C22.43 25.5692 21.155 24.2942 19.5822 24.2942Z" fill="#F56646"/>
<path d="M74.3609 32.1689H59.0974C58.9283 32.1682 58.7665 32.1006 58.6472 31.9808C58.5279 31.861 58.4609 31.6988 58.4609 31.5298C58.4609 31.4462 58.4774 31.3635 58.5094 31.2862C58.5414 31.209 58.5882 31.1389 58.6473 31.0798C58.7064 31.0207 58.7766 30.9738 58.8538 30.9418C58.931 30.9098 59.0138 30.8934 59.0974 30.8934H74.3609C74.5299 30.8934 74.692 30.9603 74.8118 31.0796C74.9316 31.1989 74.9993 31.3608 75 31.5298C74.9993 31.6991 74.9317 31.8612 74.812 31.9809C74.6923 32.1007 74.5301 32.1682 74.3609 32.1689Z" fill="#00263B"/>
<path d="M57.687 35.421H51.0153C49.9827 35.4181 48.9932 35.0067 48.263 34.2765C47.5328 33.5463 47.1214 32.5568 47.1185 31.5242C47.1221 30.4921 47.5339 29.5032 48.264 28.7737C48.9941 28.0441 49.9832 27.633 51.0153 27.6301H57.687C58.7187 27.6337 59.7071 28.0451 60.4366 28.7746C61.1661 29.5041 61.5775 30.4925 61.5811 31.5242C61.5782 32.5564 61.1671 33.5455 60.4376 34.2755C59.708 35.0056 58.7192 35.4174 57.687 35.421Z" fill="#F56646"/>
<path d="M19.1076 23H49.6346C50.7789 23 51.8764 23.4546 52.6856 24.2638C53.4947 25.0729 53.9493 26.1704 53.9493 27.3148V35.7259C53.9493 36.8702 53.4947 37.9677 52.6856 38.7769C51.8764 39.586 50.7789 40.0406 49.6346 40.0406H19.1076V23Z" fill="#00A1AB"/>
<path d="M32.7207 27.6624H24.4984C24.2933 27.6617 24.0969 27.5799 23.9519 27.435C23.8069 27.29 23.7251 27.0935 23.7244 26.8885C23.7251 26.6834 23.8069 26.487 23.9519 26.342C24.0969 26.197 24.2933 26.1152 24.4984 26.1145H32.7207C32.9258 26.1152 33.1222 26.197 33.2672 26.342C33.4122 26.487 33.494 26.6834 33.4947 26.8885C33.494 27.0935 33.4122 27.29 33.2672 27.435C33.1222 27.5799 32.9258 27.6617 32.7207 27.6624Z" fill="#187E89"/>
<path d="M32.7207 30.7558H24.4984C24.2931 30.7544 24.0966 30.672 23.9517 30.5266C23.8068 30.3812 23.7251 30.1845 23.7244 29.9792C23.7244 29.7737 23.8059 29.5765 23.9509 29.4309C24.096 29.2854 24.2929 29.2032 24.4984 29.2025H32.7207C32.9258 29.2032 33.1222 29.285 33.2672 29.43C33.4122 29.575 33.494 29.7714 33.4947 29.9765C33.4947 30.1822 33.4133 30.3797 33.2683 30.5257C33.1233 30.6717 32.9265 30.7544 32.7207 30.7558Z" fill="#187E89"/>
<path d="M32.7207 33.8459H24.4984C24.2929 33.8452 24.096 33.7631 23.9509 33.6175C23.8059 33.4719 23.7244 33.2748 23.7244 33.0692C23.7251 32.8642 23.8069 32.6678 23.9519 32.5228C24.0969 32.3778 24.2933 32.296 24.4984 32.2953H32.7207C32.9258 32.296 33.1222 32.3778 33.2672 32.5228C33.4122 32.6678 33.494 32.8642 33.4947 33.0692C33.4947 33.2748 33.4132 33.4719 33.2682 33.6175C33.1231 33.7631 32.9262 33.8452 32.7207 33.8459Z" fill="#187E89"/>
<path d="M32.7207 36.9366H24.4984C24.2933 36.9359 24.0969 36.8542 23.9519 36.7092C23.8069 36.5642 23.7251 36.3677 23.7244 36.1627C23.7251 35.9574 23.8068 35.7606 23.9517 35.6152C24.0966 35.4698 24.2931 35.3874 24.4984 35.386H32.7207C32.926 35.3874 33.1225 35.4698 33.2674 35.6152C33.4123 35.7606 33.494 35.9574 33.4947 36.1627C33.494 36.3677 33.4122 36.5642 33.2672 36.7092C33.1222 36.8542 32.9258 36.9359 32.7207 36.9366Z" fill="#187E89"/>
<path d="M37.2592 26.1145H35.7086V27.6651H37.2592V26.1145Z" fill="#00263B"/>
<path d="M40.045 26.1145H38.4944V27.6651H40.045V26.1145Z" fill="#00263B"/>
<path d="M42.828 26.1145H41.2774V27.6651H42.828V26.1145Z" fill="#00263B"/>
<path d="M46.0344 40.0518H42.89V45.181H46.0344V40.0518Z" fill="#00263B"/>
<path d="M44.4515 60.4844C43.7155 60.4844 43.0097 60.192 42.4893 59.6716C41.9689 59.1512 41.6765 58.4454 41.6765 57.7095V45.1805H47.2399V57.7095C47.2399 58.075 47.1677 58.437 47.0274 58.7745C46.8871 59.1121 46.6815 59.4186 46.4223 59.6764C46.1632 59.9343 45.8557 60.1384 45.5175 60.2771C45.1793 60.4157 44.817 60.4862 44.4515 60.4844Z" fill="#F56646"/>
</g>
<defs>
<clipPath id="clip0_1574_5764">
<rect width="61" height="37.4845" fill="white" transform="translate(14 23)"/>
</clipPath>
</defs>
</svg>
