<svg width="80" height="80" viewBox="0 0 80 80" fill="none" xmlns="http://www.w3.org/2000/svg">
<rect width="80" height="80" rx="10" fill="#C0F2FF"/>
<path d="M39.9999 55.625C35.5797 55.625 31.3404 55.8994 28.2148 56.3877C25.0892 56.8761 23.3333 57.5385 23.3333 58.2292C23.3333 58.9198 25.0892 59.5822 28.2148 60.0706C31.3404 60.559 35.5797 60.8333 39.9999 60.8333C44.4202 60.8333 48.6594 60.559 51.785 60.0706C54.9107 59.5822 56.6666 58.9198 56.6666 58.2292C56.6666 57.5385 54.9107 56.8761 51.785 56.3877C48.6594 55.8994 44.4202 55.625 39.9999 55.625Z" fill="#E3C67B"/>
<path d="M27.5001 37.9167C27.5001 40.2188 25.6355 42.0833 23.3334 42.0833C21.0313 42.0833 19.1667 40.2188 19.1667 37.9167C19.1667 35.6146 21.0313 33.75 23.3334 33.75C25.6355 33.75 27.5001 35.6146 27.5001 37.9167ZM44.1855 37.9167C44.1855 40.2188 42.3209 42.0833 40.0188 42.0833C37.7167 42.0833 35.8521 40.2188 35.8521 37.9167C35.8521 35.6146 37.7167 33.75 40.0188 33.75C42.3209 33.75 44.1855 35.6146 44.1855 37.9167ZM60.8334 37.9167C60.8334 40.2188 58.9688 42.0833 56.6667 42.0833C54.3646 42.0833 52.5001 40.2188 52.5001 37.9167C52.5001 35.6146 54.3646 33.75 56.6667 33.75C58.9688 33.75 60.8334 35.6146 60.8334 37.9167Z" fill="#1594B0"/>
<path d="M52.4999 37.9167C52.4999 40.2188 50.6353 42.0833 48.3333 42.0833C46.0312 42.0833 44.1666 40.2188 44.1666 37.9167C44.1666 35.6146 46.0312 33.75 48.3333 33.75C50.6353 33.75 52.4999 35.6146 52.4999 37.9167ZM35.852 37.9167C35.852 35.6146 33.9874 33.75 31.6853 33.75C29.3833 33.75 27.5187 35.6146 27.5187 37.9167C27.5187 40.2188 29.3833 42.0833 31.6853 42.0833C33.9874 42.0833 35.852 40.2188 35.852 37.9167Z" fill="#FFA000"/>
<path d="M40.0001 21.245C40.0001 21.245 39.9251 21.2502 39.7938 21.2502C20.2084 21.2502 19.1667 37.9168 19.1667 37.9168H60.8334C60.8334 37.9168 59.7917 21.245 40.0001 21.245Z" fill="#1AA7C6"/>
<path d="M40.0187 21.2443C40.0187 21.2443 35.852 25.4161 35.852 37.9161H27.5187C27.5187 37.9161 26.477 25.4109 40.0187 21.2443Z" fill="#FDD835"/>
<path d="M39.9999 21.2444C39.9999 21.2444 44.1666 25.4163 44.1666 37.9163H52.4999C52.4999 37.9163 53.5416 25.4111 39.9999 21.2444Z" fill="#FDD835"/>
<path d="M41.0418 21.2513C41.0418 21.8273 38.9585 21.8273 38.9585 21.2513V20.2096C38.9585 19.6336 39.4241 19.1679 40.0002 19.1679C40.5762 19.1679 41.0418 19.6336 41.0418 20.2096V21.2513ZM40.0002 42.0846C39.6377 42.0846 39.2929 42.0231 38.9585 41.9367V56.6679C38.9585 56.6679 38.9585 57.7096 40.0002 57.7096C41.0418 57.7096 41.0418 56.6679 41.0418 56.6679V41.9367C40.7075 42.0231 40.3627 42.0846 40.0002 42.0846Z" fill="#455A64"/>
</svg>
