<svg width="81" height="80" viewBox="0 0 81 80" fill="none" xmlns="http://www.w3.org/2000/svg">
<rect x="0.5" width="80" height="80" rx="10" fill="#0C3F42"/>
<g clip-path="url(#clip0_1574_5784)">
<g clip-path="url(#clip1_1574_5784)">
<path fill-rule="evenodd" clip-rule="evenodd" d="M51.6217 32.8804H19.8419C25.0472 24.4727 41.6545 19.0865 51.6217 32.8804Z" fill="#879036"/>
<path fill-rule="evenodd" clip-rule="evenodd" d="M22.7576 46.0175C21.4669 46.0175 20.2052 46.4002 19.132 47.1173C18.0588 47.8344 17.2224 48.8536 16.7284 50.046C16.2345 51.2385 16.1053 52.5506 16.3571 53.8165C16.6089 55.0824 17.2304 56.2452 18.1431 57.1579C19.0557 58.0705 20.2185 58.6921 21.4844 58.9439C22.7503 59.1957 24.0625 59.0664 25.2549 58.5725C26.4474 58.0786 27.4666 57.2421 28.1837 56.169C28.9007 55.0958 29.2835 53.8341 29.2835 52.5434C29.2835 51.6864 29.1147 50.8378 28.7867 50.046C28.4588 49.2543 27.9781 48.5349 27.3721 47.9289C26.7661 47.3229 26.0467 46.8422 25.2549 46.5142C24.4632 46.1863 23.6146 46.0175 22.7576 46.0175Z" fill="#00263B"/>
<path fill-rule="evenodd" clip-rule="evenodd" d="M22.7576 49.0168C22.0602 49.0171 21.3785 49.2242 20.7988 49.6119C20.2191 49.9996 19.7673 50.5505 19.5007 51.1949C19.234 51.8393 19.1644 52.5484 19.3007 53.2323C19.437 53.9163 19.773 54.5445 20.2662 55.0375C20.7595 55.5306 21.3879 55.8663 22.0719 56.0022C22.7559 56.1381 23.4649 56.0682 24.1092 55.8012C24.7535 55.5343 25.3042 55.0823 25.6916 54.5024C26.079 53.9225 26.2858 53.2407 26.2858 52.5433C26.2858 52.08 26.1945 51.6213 26.0172 51.1934C25.8399 50.7654 25.58 50.3765 25.2523 50.0491C24.9247 49.7216 24.5357 49.4618 24.1076 49.2847C23.6796 49.1076 23.2208 49.0165 22.7576 49.0168Z" fill="#9C9C9C"/>
<path fill-rule="evenodd" clip-rule="evenodd" d="M17.9669 34.7735L28.5448 45.3822C29.4166 46.2574 31.0374 46.7197 32.1276 46.6856L45.9932 46.2113C48.7059 45.9605 50.2585 44.5189 50.8283 42.347L52.7597 34.7735H17.9669Z" fill="#187E89"/>
<path fill-rule="evenodd" clip-rule="evenodd" d="M53.9402 32.8806H15.9723C15.7169 32.8769 15.4705 32.9744 15.2867 33.1518C15.1029 33.3292 14.9967 33.5721 14.9913 33.8275V34.7743H54.9144V33.8275C54.909 33.5721 54.8029 33.3292 54.6191 33.1518C54.4353 32.9744 54.1888 32.8769 53.9334 32.8806H53.9402Z" fill="#187E89"/>
<path fill-rule="evenodd" clip-rule="evenodd" d="M28.0227 46.3568C28.4219 46.2095 28.8313 46.0915 29.2476 46.0037C29.7336 45.9003 30.2261 45.8307 30.7217 45.7955C30.7547 45.7938 30.7877 45.7938 30.8207 45.7955L45.9642 45.2837C47.0987 45.2444 48.2572 45.2154 49.3593 44.9186C50.6218 44.5773 51.6882 43.9137 52.6862 43.0811L60.5344 36.533C61.464 35.7765 62.5158 35.1839 63.6446 34.7808C64.8572 34.3388 66.1259 34.0695 67.4134 33.9807L69.8685 33.8101L70.0016 35.7004L67.5482 35.871C66.4381 35.9446 65.344 36.1743 64.2981 36.5535C63.3703 36.8796 62.5049 37.3614 61.7389 37.9781L53.8908 44.5279C52.6743 45.5413 51.3811 46.3295 49.8439 46.7458C48.583 47.087 47.3154 47.1263 46.0188 47.1706L30.8804 47.6825H30.8582C30.4498 47.7111 30.0439 47.7681 29.6435 47.8531C29.3275 47.92 29.0168 48.0095 28.7136 48.121L15.9109 55.3003C15.6917 55.4231 15.4327 55.4539 15.1908 55.3857C14.9489 55.3176 14.744 55.1561 14.6211 54.9369C14.4983 54.7176 14.4675 54.4586 14.5357 54.2167C14.6038 53.9748 14.7653 53.7699 14.9845 53.6471L27.8435 46.4353C27.9006 46.4036 27.9606 46.3773 28.0227 46.3568Z" fill="#3D5B65"/>
<path fill-rule="evenodd" clip-rule="evenodd" d="M16.7316 36.9872C16.6393 36.9001 16.5654 36.7955 16.5143 36.6794C16.4633 36.5632 16.436 36.438 16.4343 36.3112C16.4325 36.1844 16.4563 36.0585 16.5041 35.941C16.552 35.8235 16.623 35.7168 16.7128 35.6273C16.8027 35.5378 16.9096 35.4672 17.0273 35.4198C17.145 35.3724 17.2709 35.3492 17.3978 35.3514C17.5246 35.3536 17.6497 35.3813 17.7656 35.4328C17.8815 35.4844 17.9859 35.5586 18.0726 35.6513L38.0648 55.6964C38.6859 56.3405 39.4647 56.811 40.3237 57.0613C40.8159 57.2072 41.3392 57.2113 41.8336 57.0733C42.2483 56.9403 42.5971 56.6549 42.8095 56.2748C43.1201 55.7459 43.2088 55.0805 43.2088 54.4714V46.2821C43.2088 45.7191 43.6336 45.6184 44.1079 45.6184C44.5822 45.6184 45.106 45.7105 45.106 46.2821V54.4714C45.106 55.4234 44.9354 56.401 44.4491 57.2319C44.0008 58.0162 43.2735 58.6028 42.412 58.8749C41.5741 59.1254 40.6821 59.1313 39.8409 58.892C38.6564 58.5551 37.581 57.9132 36.7221 57.0306L16.7316 36.9872Z" fill="#3D5B65"/>
<path fill-rule="evenodd" clip-rule="evenodd" d="M70.2575 36.9053L69.6024 36.9258C69.5004 36.931 69.4004 36.896 69.3239 36.8284C69.2474 36.7608 69.2003 36.666 69.1929 36.5641L69.0223 32.9813C69.0207 32.9309 69.0291 32.8807 69.0471 32.8336C69.0651 32.7865 69.0923 32.7434 69.127 32.7069C69.1618 32.6704 69.2035 32.6412 69.2496 32.6209C69.2958 32.6006 69.3455 32.5898 69.3959 32.5889L70.0528 32.5684C70.1532 32.5631 70.2518 32.597 70.3278 32.6628C70.4038 32.7287 70.4514 32.8214 70.4605 32.9216L70.6311 36.5129C70.6327 36.5633 70.6243 36.6135 70.6063 36.6606C70.5883 36.7077 70.5612 36.7508 70.5264 36.7873C70.4916 36.8238 70.45 36.8531 70.4038 36.8733C70.3576 36.8936 70.3079 36.9045 70.2575 36.9053Z" fill="#4E4E4E"/>
<path fill-rule="evenodd" clip-rule="evenodd" d="M23.6943 52.0189L22.7678 50.369L20.8911 51.4183L21.8158 53.0681C21.8847 53.1913 21.9772 53.2998 22.088 53.3873C22.1988 53.4748 22.3258 53.5396 22.4616 53.578C22.5975 53.6164 22.7396 53.6277 22.8798 53.6112C23.02 53.5947 23.1556 53.5508 23.2788 53.4819C23.402 53.413 23.5105 53.3205 23.598 53.2097C23.6855 53.0989 23.7503 52.9719 23.7887 52.836C23.8271 52.7002 23.8384 52.5581 23.8219 52.4179C23.8054 52.2777 23.7614 52.1421 23.6926 52.0189H23.6943Z" fill="#3D5B65"/>
<path fill-rule="evenodd" clip-rule="evenodd" d="M22.7576 52.0578C22.6614 52.0578 22.5674 52.0863 22.4875 52.1398C22.4075 52.1932 22.3452 52.2691 22.3084 52.358C22.2716 52.4468 22.2619 52.5446 22.2807 52.6389C22.2995 52.7333 22.3458 52.8199 22.4138 52.8879C22.4818 52.9559 22.5684 53.0022 22.6627 53.021C22.7571 53.0397 22.8548 53.0301 22.9437 52.9933C23.0325 52.9565 23.1085 52.8942 23.1619 52.8142C23.2153 52.7343 23.2438 52.6402 23.2438 52.5441C23.2438 52.4151 23.1926 52.2914 23.1014 52.2002C23.0102 52.1091 22.8866 52.0578 22.7576 52.0578Z" fill="white"/>
<path d="M20.6523 54.5992C20.615 54.5637 20.5852 54.5211 20.5648 54.4739C20.5443 54.4266 20.5336 54.3758 20.5333 54.3243C20.533 54.2728 20.5431 54.2218 20.563 54.1743C20.5829 54.1269 20.6122 54.0839 20.6491 54.048C20.686 54.0122 20.7298 53.9841 20.7778 53.9656C20.8258 53.947 20.8771 53.9384 20.9285 53.9401C20.98 53.9419 21.0305 53.954 21.0772 53.9758C21.1238 53.9976 21.1656 54.0286 21.1999 54.0669C21.3152 54.1833 21.4428 54.2868 21.5804 54.3757C21.7189 54.465 21.8672 54.5383 22.0223 54.5941C22.1121 54.6322 22.1839 54.7033 22.223 54.7926C22.2621 54.882 22.2655 54.983 22.2326 55.0748C22.1996 55.1666 22.1328 55.2424 22.0458 55.2866C21.9588 55.3307 21.8582 55.3399 21.7647 55.3123C21.5553 55.2371 21.355 55.1386 21.1675 55.0189C20.9816 54.8988 20.8099 54.758 20.6557 54.5992H20.6523ZM23.179 55.4522C23.0786 55.4665 22.9766 55.4402 22.8955 55.3793C22.8144 55.3183 22.7608 55.2277 22.7465 55.1272C22.7323 55.0268 22.7585 54.9248 22.8195 54.8437C22.8804 54.7625 22.9711 54.709 23.0716 54.6947C23.1998 54.6771 23.326 54.6474 23.4486 54.606C23.5717 54.5646 23.691 54.5127 23.8052 54.4507C24.0562 54.3132 24.2776 54.1276 24.4568 53.9045C24.636 53.6814 24.7695 53.4251 24.8497 53.1504C24.9299 52.8757 24.9551 52.5878 24.924 52.3033C24.8929 52.0188 24.8061 51.7433 24.6685 51.4923C24.6257 51.404 24.6186 51.3025 24.6486 51.209C24.6786 51.1155 24.7435 51.0372 24.8297 50.9902C24.9159 50.9432 25.0169 50.9313 25.1118 50.9568C25.2066 50.9823 25.288 51.0433 25.339 51.1272C25.5247 51.4662 25.6417 51.8384 25.6835 52.2226C25.7252 52.6068 25.6909 52.9955 25.5823 53.3664C25.4738 53.7374 25.2932 54.0833 25.0509 54.3844C24.8087 54.6855 24.5094 54.9359 24.1703 55.1212C24.017 55.2052 23.8566 55.2754 23.6909 55.3311C23.5242 55.3867 23.3529 55.4273 23.179 55.4522Z" fill="white"/>
<path fill-rule="evenodd" clip-rule="evenodd" d="M15.9724 32.8805H48.6223C48.7856 32.8889 48.9395 32.9597 49.0521 33.0783C49.1647 33.1969 49.2274 33.3542 49.2274 33.5177C49.2274 33.6812 49.1647 33.8385 49.0521 33.9571C48.9395 34.0757 48.7856 34.1465 48.6223 34.1549H15.9724C15.8091 34.1465 15.6553 34.0757 15.5427 33.9571C15.4301 33.8385 15.3673 33.6812 15.3673 33.5177C15.3673 33.3542 15.4301 33.1969 15.5427 33.0783C15.6553 32.9597 15.8091 32.8889 15.9724 32.8805Z" fill="#5CC6CD"/>
<path fill-rule="evenodd" clip-rule="evenodd" d="M17.9669 34.7735L25.223 42.0535C26.7841 43.6197 29.7135 44.4182 32.9994 44.2715L42.1493 43.9183C44.8621 43.6658 46.4146 42.2258 46.9845 40.054L47.6669 34.7752L17.9669 34.7735Z" fill="#00A1AB"/>
<path fill-rule="evenodd" clip-rule="evenodd" d="M17.9669 34.7735L19.8538 36.6673H52.2785L52.7614 34.7735H17.9669Z" fill="#426E79"/>
<path fill-rule="evenodd" clip-rule="evenodd" d="M47.6652 34.7735L47.4212 36.6673H52.2785L52.7613 34.7735H47.6652Z" fill="#3D5B65"/>
<path fill-rule="evenodd" clip-rule="evenodd" d="M70.2183 36.0182L77.1775 35.7384C77.2647 35.7336 77.3468 35.6956 77.4068 35.6321C77.4668 35.5686 77.5001 35.4846 77.5 35.3972L77.4232 33.4915C77.4184 33.4028 77.3791 33.3195 77.3138 33.2593C77.2485 33.1991 77.1623 33.1667 77.0735 33.169L70.1193 33.4403C70.0321 33.4451 69.9501 33.4832 69.8901 33.5466C69.8301 33.6101 69.7967 33.6942 69.7969 33.7815L69.8737 35.6873C69.8785 35.776 69.9178 35.8593 69.9831 35.9195C70.0484 35.9797 70.1346 36.0121 70.2234 36.0097L70.2183 36.0182Z" fill="#4E4E4E"/>
<path fill-rule="evenodd" clip-rule="evenodd" d="M47.6652 32.8804H20.6659C25.0881 25.7386 39.1977 21.1611 47.6652 32.8804Z" fill="#AFB94B"/>
<path fill-rule="evenodd" clip-rule="evenodd" d="M22.7985 25.2417H23.2592V32.88H22.7985V25.2417Z" fill="#808932"/>
<path fill-rule="evenodd" clip-rule="evenodd" d="M23.0306 23.0219C23.4693 23.0219 23.8981 23.152 24.2629 23.3957C24.6276 23.6394 24.9119 23.9858 25.0798 24.3911C25.2476 24.7963 25.2915 25.2423 25.206 25.6725C25.1204 26.1028 24.9091 26.498 24.599 26.8082C24.2888 27.1183 23.8936 27.3296 23.4633 27.4152C23.0331 27.5007 22.5871 27.4568 22.1819 27.2889C21.7766 27.1211 21.4302 26.8368 21.1865 26.4721C20.9428 26.1073 20.8127 25.6785 20.8127 25.2398C20.8127 24.6516 21.0464 24.0875 21.4623 23.6715C21.8783 23.2556 22.4424 23.0219 23.0306 23.0219Z" fill="#DC6672"/>
<path fill-rule="evenodd" clip-rule="evenodd" d="M23.0306 23.0219C23.0306 23.6101 22.797 24.1743 22.381 24.5902C21.9651 25.0062 21.4009 25.2398 20.8127 25.2398C20.8127 24.6516 21.0464 24.0874 21.4623 23.6715C21.8783 23.2556 22.4424 23.0219 23.0306 23.0219Z" fill="#EAA5AB"/>
<path fill-rule="evenodd" clip-rule="evenodd" d="M23.0306 24.688C23.1402 24.688 23.2474 24.7205 23.3386 24.7814C23.4298 24.8424 23.5009 24.929 23.5428 25.0303C23.5848 25.1316 23.5958 25.2431 23.5744 25.3507C23.553 25.4582 23.5002 25.557 23.4226 25.6346C23.3451 25.7121 23.2463 25.7649 23.1387 25.7863C23.0312 25.8077 22.9197 25.7967 22.8184 25.7548C22.7171 25.7128 22.6305 25.6417 22.5695 25.5505C22.5086 25.4593 22.4761 25.3521 22.4761 25.2425C22.4759 25.1696 22.49 25.0974 22.5178 25.03C22.5456 24.9626 22.5864 24.9014 22.638 24.8499C22.6895 24.7984 22.7507 24.7575 22.8181 24.7297C22.8855 24.702 22.9577 24.6878 23.0306 24.688Z" fill="white"/>
<path fill-rule="evenodd" clip-rule="evenodd" d="M25.9907 28.7842C25.2056 28.7842 24.4527 29.096 23.8976 29.6512C23.3424 30.2063 23.0306 30.9592 23.0306 31.7443C23.4193 31.7443 23.8042 31.6677 24.1634 31.519C24.5225 31.3702 24.8488 31.1522 25.1237 30.8773C25.3986 30.6024 25.6166 30.2761 25.7654 29.917C25.9141 29.5578 25.9907 29.1729 25.9907 28.7842Z" fill="#696F2B"/>
<path fill-rule="evenodd" clip-rule="evenodd" d="M25.9907 28.7842C25.2056 28.7842 24.4527 29.096 23.8976 29.6512C23.3424 30.2063 23.0306 30.9592 23.0306 31.7443C23.5834 30.4647 25.0472 29.3011 25.9924 28.7842H25.9907Z" fill="#808932"/>
<path fill-rule="evenodd" clip-rule="evenodd" d="M20.067 28.7842C20.0672 29.1731 20.1441 29.5582 20.2931 29.9175C20.4422 30.2767 20.6605 30.6031 20.9357 30.878C21.2109 31.1529 21.5375 31.3709 21.897 31.5195C22.2564 31.6681 22.6416 31.7445 23.0305 31.7443C23.0305 31.3553 22.9539 30.9701 22.8049 30.6107C22.6559 30.2514 22.4376 29.9249 22.1623 29.65C21.8871 29.3751 21.5604 29.1571 21.2008 29.0085C20.8413 28.86 20.456 28.7837 20.067 28.7842Z" fill="#808932"/>
<path fill-rule="evenodd" clip-rule="evenodd" d="M20.067 28.7842C20.0672 29.1731 20.1441 29.5582 20.2931 29.9175C20.4422 30.2767 20.6605 30.6031 20.9357 30.878C21.2109 31.1529 21.5375 31.3708 21.897 31.5195C22.2564 31.6681 22.6416 31.7445 23.0305 31.7443C21.7492 31.1915 20.5857 29.7294 20.0687 28.7842H20.067Z" fill="#696F2B"/>
<path fill-rule="evenodd" clip-rule="evenodd" d="M42.4871 21.9305H42.9478V32.8804H42.4871V21.9305Z" fill="#808932"/>
<path fill-rule="evenodd" clip-rule="evenodd" d="M42.7175 24.1491C42.2788 24.1491 41.85 24.019 41.4852 23.7753C41.1205 23.5316 40.8362 23.1852 40.6683 22.7799C40.5005 22.3747 40.4565 21.9287 40.5421 21.4985C40.6277 21.0682 40.839 20.673 41.1491 20.3628C41.4593 20.0527 41.8545 19.8414 42.2848 19.7558C42.715 19.6703 43.161 19.7142 43.5662 19.8821C43.9715 20.0499 44.3179 20.3342 44.5616 20.699C44.8053 21.0637 44.9354 21.4925 44.9354 21.9312C44.9354 22.5194 44.7017 23.0836 44.2858 23.4995C43.8698 23.9155 43.3057 24.1491 42.7175 24.1491Z" fill="#DC6672"/>
<path fill-rule="evenodd" clip-rule="evenodd" d="M42.7174 24.1485C42.7174 23.5602 42.9511 22.9961 43.367 22.5801C43.783 22.1642 44.3471 21.9305 44.9354 21.9305C44.9354 22.5187 44.7017 23.0829 44.2857 23.4988C43.8698 23.9148 43.3056 24.1485 42.7174 24.1485Z" fill="#9C3740"/>
<path fill-rule="evenodd" clip-rule="evenodd" d="M42.7174 22.4854C42.6074 22.4854 42.4998 22.4527 42.4083 22.3915C42.3168 22.3304 42.2455 22.2434 42.2034 22.1417C42.1614 22.0399 42.1505 21.928 42.1721 21.8201C42.1937 21.7121 42.2468 21.613 42.3248 21.5353C42.4027 21.4576 42.502 21.4048 42.61 21.3835C42.718 21.3622 42.8299 21.3735 42.9315 21.4158C43.0331 21.4582 43.1198 21.5298 43.1807 21.6214C43.2416 21.7131 43.274 21.8208 43.2736 21.9309C43.2732 22.0781 43.2144 22.2192 43.1101 22.3231C43.0059 22.427 42.8647 22.4854 42.7174 22.4854Z" fill="white"/>
<path fill-rule="evenodd" clip-rule="evenodd" d="M33.2775 23.9374H32.8185V32.8809H33.2775V23.9374Z" fill="#808932"/>
<path fill-rule="evenodd" clip-rule="evenodd" d="M33.0489 21.92C33.5828 21.92 34.095 22.1317 34.473 22.5088C34.8511 22.8859 35.0641 23.3975 35.0655 23.9315H31.0305C31.0323 23.3974 31.2458 22.8858 31.6241 22.5087C32.0024 22.1317 32.5147 21.92 33.0489 21.92Z" fill="#EAA5AB"/>
<path fill-rule="evenodd" clip-rule="evenodd" d="M33.0489 25.9481C33.5827 25.9477 34.0946 25.7358 34.4725 25.3588C34.8505 24.9818 35.0637 24.4704 35.0655 23.9366V21.92C34.5306 21.92 34.0177 22.1324 33.6395 22.5106C33.2613 22.8888 33.0489 23.4018 33.0489 23.9366C33.0484 23.4016 32.8356 22.8887 32.4571 22.5105C32.0786 22.1324 31.5655 21.92 31.0305 21.92V23.9366C31.0323 24.4707 31.2458 24.9823 31.6241 25.3594C32.0024 25.7364 32.5147 25.9481 33.0489 25.9481Z" fill="#DC6672"/>
<path fill-rule="evenodd" clip-rule="evenodd" d="M35.3026 25.9449C33.7228 27.5487 32.7127 30.6538 33.0489 32.8803C34.6287 31.2765 35.637 28.1714 35.3026 25.9449Z" fill="#696F2B"/>
<path fill-rule="evenodd" clip-rule="evenodd" d="M35.3026 25.9442C33.7228 27.5497 32.7127 30.6548 33.0489 32.8813C33.3201 30.5951 34.4956 27.5753 35.3026 25.9442Z" fill="#808932"/>
<path fill-rule="evenodd" clip-rule="evenodd" d="M33.0489 32.8802C31.6123 31.4214 30.6944 28.5995 31.0015 26.5761C32.4364 28.0331 33.3543 30.8567 33.0489 32.8802Z" fill="#808932"/>
<path fill-rule="evenodd" clip-rule="evenodd" d="M33.0489 32.8802C31.6123 31.4214 30.6944 28.5995 31.0015 26.5761C31.2472 28.6541 32.3152 31.3976 33.0489 32.8802Z" fill="#696F2B"/>
<path fill-rule="evenodd" clip-rule="evenodd" d="M27.9715 21.7226H27.5126V32.8806H27.9715V21.7226Z" fill="#808932"/>
<path fill-rule="evenodd" clip-rule="evenodd" d="M27.7429 19.7113C28.2767 19.7118 28.7886 19.9237 29.1666 20.3007C29.5445 20.6777 29.7577 21.189 29.7595 21.7228H25.7245C25.7264 21.1887 25.9398 20.6771 26.3181 20.3001C26.6964 19.923 27.2088 19.7113 27.7429 19.7113Z" fill="#DC6672"/>
<path fill-rule="evenodd" clip-rule="evenodd" d="M27.7429 23.7395C28.2768 23.7395 28.789 23.5277 29.167 23.1506C29.5451 22.7735 29.7582 22.2619 29.7595 21.728V19.7113C29.2247 19.7113 28.7117 19.9238 28.3335 20.302C27.9553 20.6802 27.7429 21.1931 27.7429 21.728C27.7424 21.193 27.5296 20.68 27.1511 20.3019C26.7727 19.9237 26.2595 19.7113 25.7245 19.7113V21.728C25.7264 22.2621 25.9398 22.7737 26.3181 23.1507C26.6964 23.5278 27.2088 23.7395 27.7429 23.7395Z" fill="#BC2431"/>
<path fill-rule="evenodd" clip-rule="evenodd" d="M27.7428 32.8802C29.1726 31.4214 30.0956 28.6012 29.7902 26.5761C28.3553 28.0331 27.4374 30.8567 27.7428 32.8802Z" fill="#808932"/>
<path fill-rule="evenodd" clip-rule="evenodd" d="M27.7429 32.8802C29.1726 31.4214 30.0956 28.6012 29.7902 26.5761C29.5445 28.6541 28.4765 31.3976 27.7429 32.8802Z" fill="#696F2B"/>
<path fill-rule="evenodd" clip-rule="evenodd" d="M48.4978 23.9319H48.0388V32.8805H48.4978V23.9319Z" fill="#808932"/>
<path fill-rule="evenodd" clip-rule="evenodd" d="M48.2691 21.92C48.8031 21.92 49.3152 22.1317 49.6933 22.5088C50.0713 22.8859 50.2844 23.3975 50.2858 23.9315H46.2508C46.2526 23.3974 46.466 22.8858 46.8444 22.5087C47.2227 22.1317 47.735 21.92 48.2691 21.92Z" fill="#DC6672"/>
<path fill-rule="evenodd" clip-rule="evenodd" d="M48.2691 25.9481C48.8029 25.9477 49.3148 25.7358 49.6928 25.3588C50.0707 24.9818 50.2839 24.4704 50.2858 23.9366V21.92C49.7509 21.92 49.238 22.1324 48.8598 22.5106C48.4816 22.8888 48.2691 23.4018 48.2691 23.9366C48.2687 23.4016 48.0558 22.8887 47.6774 22.5105C47.2989 22.1324 46.7858 21.92 46.2508 21.92V23.9366C46.2526 24.4707 46.466 24.9823 46.8444 25.3594C47.2227 25.7364 47.735 25.9481 48.2691 25.9481Z" fill="#BC2431"/>
<path fill-rule="evenodd" clip-rule="evenodd" d="M46.0393 25.9449C47.6191 27.5487 48.6291 30.6538 48.293 32.8803C46.7132 31.2765 45.7049 28.1714 46.0393 25.9449Z" fill="#696F2B"/>
<path fill-rule="evenodd" clip-rule="evenodd" d="M46.0392 25.9442C47.6191 27.5497 48.6223 30.6497 48.293 32.8813C48.0218 30.5951 46.8462 27.5753 46.0392 25.9442Z" fill="#808932"/>
<path fill-rule="evenodd" clip-rule="evenodd" d="M48.2947 32.8802C49.7296 31.4214 50.6475 28.5995 50.3421 26.5761C48.9072 28.0331 47.9893 30.8567 48.2947 32.8802Z" fill="#808932"/>
<path fill-rule="evenodd" clip-rule="evenodd" d="M48.2947 32.8802C49.7296 31.4214 50.6475 28.5995 50.3421 26.5761C50.0964 28.6541 49.0284 31.3976 48.2947 32.8802Z" fill="#696F2B"/>
<path fill-rule="evenodd" clip-rule="evenodd" d="M45.6792 28.7842C45.2904 28.784 44.9052 28.8604 44.5459 29.009C44.1866 29.1577 43.8601 29.3757 43.585 29.6506C43.31 29.9255 43.0918 30.2519 42.9429 30.6111C42.794 30.9704 42.7174 31.3554 42.7174 31.7443C43.1063 31.7445 43.4914 31.6681 43.8507 31.5195C44.21 31.3708 44.5366 31.1528 44.8116 30.8779C45.0867 30.603 45.3049 30.2766 45.4537 29.9174C45.6026 29.5581 45.6792 29.1731 45.6792 28.7842Z" fill="#696F2B"/>
<path fill-rule="evenodd" clip-rule="evenodd" d="M45.6792 28.7842C45.2904 28.784 44.9052 28.8604 44.5459 29.009C44.1866 29.1577 43.8601 29.3757 43.585 29.6506C43.31 29.9255 43.0918 30.2519 42.9429 30.6111C42.794 30.9704 42.7174 31.3554 42.7174 31.7443C43.2702 30.4647 44.734 29.3011 45.6792 28.7842Z" fill="#808932"/>
<path fill-rule="evenodd" clip-rule="evenodd" d="M37.1077 19.0173H37.5667V32.8812H37.1077V19.0173Z" fill="#808932"/>
<path fill-rule="evenodd" clip-rule="evenodd" d="M39.4604 27.0209H39.9211V32.8797H39.4604V27.0209Z" fill="#808932"/>
<path fill-rule="evenodd" clip-rule="evenodd" d="M39.6908 29.2395C39.2521 29.2395 38.8233 29.1094 38.4586 28.8657C38.0938 28.622 37.8095 28.2756 37.6417 27.8703C37.4738 27.4651 37.4299 27.0191 37.5155 26.5889C37.601 26.1586 37.8123 25.7634 38.1225 25.4532C38.4326 25.1431 38.8278 24.9318 39.2581 24.8462C39.6883 24.7607 40.1343 24.8046 40.5396 24.9725C40.9448 25.1403 41.2912 25.4246 41.5349 25.7893C41.7787 26.1541 41.9087 26.5829 41.9087 27.0216C41.9087 27.6098 41.6751 28.174 41.2591 28.5899C40.8432 29.0058 40.279 29.2395 39.6908 29.2395Z" fill="#BC2431"/>
<path fill-rule="evenodd" clip-rule="evenodd" d="M39.6908 29.2389C39.6908 28.6506 39.9245 28.0865 40.3404 27.6705C40.7564 27.2546 41.3205 27.0209 41.9087 27.0209C41.9087 27.6091 41.6751 28.1733 41.2591 28.5892C40.8432 29.0052 40.279 29.2389 39.6908 29.2389Z" fill="#672027"/>
<path fill-rule="evenodd" clip-rule="evenodd" d="M39.6908 27.5784C39.5806 27.5787 39.4729 27.5463 39.3811 27.4853C39.2894 27.4243 39.2178 27.3375 39.1755 27.2358C39.1332 27.1341 39.1221 27.0221 39.1435 26.9141C39.1649 26.806 39.2179 26.7068 39.2958 26.6289C39.3737 26.551 39.4729 26.498 39.581 26.4766C39.689 26.4552 39.801 26.4663 39.9027 26.5086C40.0044 26.5509 40.0912 26.6225 40.1522 26.7142C40.2132 26.806 40.2456 26.9137 40.2453 27.0239C40.2453 27.1709 40.1868 27.312 40.0829 27.416C39.9789 27.5199 39.8378 27.5784 39.6908 27.5784Z" fill="white"/>
<path fill-rule="evenodd" clip-rule="evenodd" d="M36.7289 29.9187C36.7289 30.7042 37.041 31.4576 37.5964 32.013C38.1519 32.5685 38.9052 32.8805 39.6908 32.8805C39.6908 32.095 39.3787 31.3416 38.8233 30.7862C38.2678 30.2307 37.5145 29.9187 36.7289 29.9187Z" fill="#808932"/>
<path fill-rule="evenodd" clip-rule="evenodd" d="M36.7289 29.9187C36.7289 30.7042 37.041 31.4576 37.5964 32.013C38.1519 32.5685 38.9052 32.8805 39.6908 32.8805C38.4095 32.3277 37.2459 30.8639 36.7289 29.9187Z" fill="#696F2B"/>
<path fill-rule="evenodd" clip-rule="evenodd" d="M37.3363 21.0281C37.8704 21.0281 38.3828 20.8164 38.7611 20.4394C39.1394 20.0624 39.3528 19.5507 39.3547 19.0166V17C38.8197 17 38.3065 17.2124 37.9281 17.5906C37.5496 17.9687 37.3368 18.4816 37.3363 19.0166C37.3363 18.7514 37.284 18.4887 37.1823 18.2437C37.0807 17.9987 36.9317 17.7762 36.7439 17.5889C36.5561 17.4015 36.3331 17.2531 36.0879 17.152C35.8426 17.051 35.5798 16.9993 35.3146 17V19.0166C35.3159 19.5506 35.529 20.0622 35.907 20.4393C36.2851 20.8164 36.7972 21.0281 37.3312 21.0281H37.3363Z" fill="#DC6672"/>
<path fill-rule="evenodd" clip-rule="evenodd" d="M70.8684 34.4026L77.1127 34.1262C77.2014 34.1214 77.2847 34.0821 77.345 34.0168C77.4052 33.9515 77.4375 33.8653 77.4352 33.7765L77.4232 33.4847C77.4184 33.396 77.3791 33.3127 77.3138 33.2525C77.2485 33.1923 77.1623 33.1599 77.0735 33.1623L70.8291 33.4387C70.7419 33.4435 70.6599 33.4815 70.5999 33.545C70.5399 33.6085 70.5065 33.6926 70.5067 33.7799L70.5186 34.0716C70.5235 34.1603 70.5627 34.2437 70.628 34.3039C70.6933 34.3641 70.7796 34.3965 70.8684 34.3941V34.4026Z" fill="#6F6D6D"/>
</g>
</g>
<defs>
<clipPath id="clip0_1574_5784">
<rect width="63" height="63" fill="white" transform="translate(14.5 17)"/>
</clipPath>
<clipPath id="clip1_1574_5784">
<rect width="63" height="42.0694" fill="white" transform="translate(14.5 17)"/>
</clipPath>
</defs>
</svg>
