<svg width="80" height="80" viewBox="0 0 80 80" fill="none" xmlns="http://www.w3.org/2000/svg">
<rect width="80" height="80" rx="10" fill="#F56646"/>
<g clip-path="url(#clip0_1621_12036)">
<path d="M25.375 71.2005C25.2215 71.2063 25.0688 71.1756 24.9293 71.1112C24.7899 71.0467 24.6676 70.9501 24.5726 70.8294C24.4775 70.7087 24.4123 70.5672 24.3824 70.4165C24.3524 70.2658 24.3584 70.1102 24.4 69.9623L25.375 66.8325C25.649 65.8792 25.6624 64.8698 25.4137 63.9095C25.1651 62.9492 24.6635 62.0731 23.9613 61.3725C22.8949 60.3125 22.1728 58.9556 21.8893 57.4789C21.6058 56.0022 21.774 54.4744 22.372 53.0948L23.5518 50.3453C23.659 50.1172 23.8505 49.9396 24.0859 49.8496C24.3214 49.7596 24.5825 49.7643 24.8146 49.8626C25.0466 49.961 25.2316 50.1454 25.3306 50.3772C25.4296 50.609 25.4351 50.8701 25.3458 51.1058L24.166 53.865C23.7224 54.8856 23.5976 56.0164 23.8082 57.1091C24.0187 58.2019 24.5547 59.2054 25.3458 59.988C26.2985 60.9333 26.9816 62.1157 27.3244 63.4133C27.6672 64.7108 27.6573 66.0763 27.2958 67.3688L26.35 70.4888C26.291 70.6997 26.1628 70.8846 25.9859 71.0137C25.809 71.1428 25.5938 71.2086 25.375 71.2005Z" fill="#F6F8FA"/>
<path d="M24.4 45.85L20.0223 49.3502C19.8072 49.5198 19.6505 49.7523 19.5738 50.0152C19.4971 50.2781 19.5043 50.5583 19.5945 50.8169C19.6846 51.0756 19.8531 51.2996 20.0766 51.4579C20.3001 51.6162 20.5674 51.7008 20.8413 51.7H27.9588C28.2326 51.7008 28.4999 51.6162 28.7234 51.4579C28.9469 51.2996 29.1155 51.0756 29.2056 50.8169C29.2957 50.5583 29.303 50.2781 29.2263 50.0152C29.1496 49.7523 28.9928 49.5198 28.7778 49.3502L24.4 45.85Z" fill="#00BAC6"/>
<path d="M35.125 32.2C35.125 29.3555 33.995 26.6276 31.9837 24.6163C29.9724 22.6049 27.2444 21.475 24.4 21.475C21.5555 21.475 18.8276 22.6049 16.8163 24.6163C14.8049 26.6276 13.675 29.3555 13.675 32.2C13.675 38.128 18.55 48.775 24.4 48.775C30.25 48.775 35.125 38.128 35.125 32.2Z" fill="#00BAC6"/>
<path d="M57.55 71.2001C57.4017 71.2038 57.2546 71.1735 57.1198 71.1117C56.9849 71.0499 56.866 70.9582 56.772 70.8435C56.678 70.7288 56.6113 70.5942 56.5772 70.4498C56.5431 70.3055 56.5423 70.1553 56.575 70.0106L57.706 64.9601C57.9199 63.9898 57.8865 62.9812 57.6088 62.0271C57.3311 61.0731 56.818 60.2041 56.1167 59.5001C55.0467 58.4227 54.3074 57.0616 53.986 55.5775C53.6647 54.0935 53.7748 52.5484 54.3032 51.1249L55.6585 47.5076C55.749 47.2646 55.9323 47.0674 56.1682 46.9595C56.4041 46.8516 56.6732 46.8419 56.9162 46.9324C57.1593 47.0229 57.3565 47.2062 57.4644 47.4421C57.5722 47.678 57.582 47.9471 57.4915 48.1901L56.1265 51.8074C55.7438 52.8781 55.6744 54.0357 55.9266 55.1445C56.1787 56.2532 56.7419 57.267 57.55 58.0669C58.4786 59.0097 59.1555 60.1707 59.5184 61.4433C59.8812 62.7159 59.9185 64.0593 59.6267 65.3501L58.525 70.4396C58.4755 70.6596 58.3512 70.8555 58.1735 70.9942C57.9957 71.1329 57.7754 71.2056 57.55 71.2001Z" fill="url(#paint0_linear_1621_12036)"/>
<path d="M56.575 42.925L52.1973 46.4252C51.9822 46.5948 51.8254 46.8273 51.7488 47.0902C51.6721 47.3531 51.6793 47.6334 51.7694 47.892C51.8596 48.1506 52.0281 48.3746 52.2516 48.5329C52.4751 48.6912 52.7424 48.7758 53.0163 48.775H60.1338C60.4076 48.7758 60.6749 48.6912 60.8984 48.5329C61.1219 48.3746 61.2904 48.1506 61.3806 47.892C61.4707 47.6334 61.4779 47.3531 61.4013 47.0902C61.3246 46.8273 61.1678 46.5948 60.9528 46.4252L56.575 42.925Z" fill="#A91EFF"/>
<path d="M67.3 29.275C67.3 26.4305 66.1701 23.7026 64.1587 21.6913C62.1474 19.6799 59.4195 18.55 56.575 18.55C53.7306 18.55 51.0026 19.6799 48.9913 21.6913C46.98 23.7026 45.85 26.4305 45.85 29.275C45.85 35.203 50.725 45.85 56.575 45.85C62.425 45.85 67.3 35.203 67.3 29.275Z" fill="#A91EFF"/>
<path d="M65.8668 59.2857L64.4628 60.0267C64.301 60.1143 64.1178 60.1544 63.9342 60.1424C63.7506 60.1303 63.5742 60.0665 63.4254 59.9584C63.2765 59.8504 63.1612 59.7024 63.0929 59.5316C63.0246 59.3608 63.006 59.1741 63.0393 58.9932C63.3415 57.2772 63.478 57.0432 63.0393 56.5557L61.8985 55.4442C61.7697 55.3166 61.6791 55.1557 61.6367 54.9794C61.5944 54.8032 61.6019 54.6186 61.6587 54.4465C61.7154 54.2743 61.8189 54.1214 61.9578 54.0048C62.0966 53.8883 62.2651 53.8127 62.4445 53.7867C64.1703 53.5332 64.4823 53.5722 64.7553 53.0164L65.4573 51.5929C65.5371 51.4281 65.6617 51.289 65.8169 51.1918C65.9721 51.0945 66.1516 51.0429 66.3347 51.0429C66.5179 51.0429 66.6974 51.0945 66.8526 51.1918C67.0078 51.289 67.1324 51.4281 67.2123 51.5929C67.9825 53.1529 68.041 53.4649 68.6455 53.5429L70.225 53.7769C70.4044 53.803 70.5729 53.8785 70.7117 53.9951C70.8506 54.1116 70.9541 54.2646 71.0108 54.4367C71.0676 54.6089 71.0751 54.7934 71.0328 54.9697C70.9904 55.1459 70.8998 55.3068 70.771 55.4344C69.523 56.6532 69.2402 56.8092 69.3475 57.3844L69.6205 58.9542C69.6538 59.1351 69.6352 59.3218 69.5668 59.4926C69.4985 59.6634 69.3833 59.8114 69.2344 59.9194C69.0855 60.0275 68.9091 60.0913 68.7255 60.1034C68.542 60.1154 68.3587 60.0753 68.197 59.9877C66.6467 59.2077 66.4225 58.9932 65.8668 59.2857Z" fill="#FFB55E"/>
<path d="M16.1418 17.3607L14.7378 18.1017C14.576 18.1893 14.3928 18.2294 14.2092 18.2174C14.0256 18.2053 13.8492 18.1415 13.7004 18.0335C13.5515 17.9254 13.4362 17.7774 13.3679 17.6066C13.2996 17.4358 13.281 17.2491 13.3143 17.0682C13.6165 15.3522 13.753 15.0694 13.3143 14.6307L12.1638 13.5192C12.0352 13.3923 11.9444 13.2321 11.9015 13.0566C11.8587 12.881 11.8654 12.6971 11.921 12.5251C11.9766 12.3532 12.0789 12.2002 12.2165 12.083C12.354 11.9659 12.5214 11.8892 12.7 11.8617C14.4258 11.6082 14.7378 11.6472 15.0108 11.0914L15.7225 9.66793C15.8023 9.50308 15.927 9.36406 16.0822 9.26679C16.2374 9.16951 16.4169 9.11792 16.6 9.11792C16.7832 9.11792 16.9626 9.16951 17.1178 9.26679C17.273 9.36406 17.3977 9.50308 17.4775 9.66793C18.2478 11.2279 18.3063 11.5399 18.9108 11.6179L20.5 11.8617C20.6794 11.8877 20.8479 11.9633 20.9868 12.0798C21.1256 12.1964 21.2291 12.3493 21.2859 12.5215C21.3426 12.6936 21.3502 12.8782 21.3078 13.0544C21.2654 13.2307 21.1748 13.3916 21.046 13.5192C19.798 14.7379 19.5153 14.8939 19.6225 15.4692L19.8955 17.0389C19.9373 17.2233 19.9245 17.4159 19.8588 17.5932C19.7931 17.7705 19.6772 17.9249 19.5253 18.0375C19.3734 18.1502 19.1921 18.2162 19.0033 18.2276C18.8146 18.239 18.6266 18.1952 18.4623 18.1017C16.9218 17.2827 16.6975 17.0682 16.1418 17.3607Z" fill="#FFB55E"/>
<path d="M40 71.2003C39.8443 71.207 39.6892 71.1764 39.5478 71.1108C39.4064 71.0453 39.2827 70.9468 39.1872 70.8236C39.0917 70.7004 39.0272 70.5561 38.999 70.4028C38.9707 70.2495 38.9797 70.0917 39.025 69.9426L40.4973 65.0676C40.9106 63.6938 41.0157 62.2457 40.805 60.8266C40.5943 59.4076 40.0731 58.0525 39.2785 56.8581C38.2403 55.3096 37.5871 53.5355 37.3734 51.6835C37.1598 49.8315 37.3917 47.9552 38.05 46.2111L39.025 43.5591C39.1155 43.316 39.2989 43.1188 39.5347 43.0109C39.7706 42.9031 40.0397 42.8933 40.2828 42.9838C40.5258 43.0743 40.723 43.2577 40.8309 43.4935C40.9387 43.7294 40.9485 43.9985 40.858 44.2415L39.883 46.8936C39.3323 48.3392 39.1335 49.8952 39.303 51.4329C39.4726 52.9706 40.0056 54.4458 40.858 55.7368C41.814 57.1701 42.4417 58.7968 42.6962 60.5008C42.9507 62.2048 42.8258 63.944 42.3303 65.5941L40.858 70.4691C40.8083 70.6648 40.6991 70.8403 40.5454 70.9713C40.3917 71.1022 40.2011 71.1823 40 71.2003Z" fill="url(#paint1_linear_1621_12036)"/>
<path d="M40 37.075L34.8715 41.3552C34.5354 41.6023 34.2874 41.9507 34.1639 42.3491C34.0404 42.7476 34.048 43.1751 34.1854 43.569C34.3229 43.9628 34.583 44.3022 34.9276 44.5373C35.2722 44.7723 35.6832 44.8907 36.1 44.875H43.9C44.3203 44.8999 44.7373 44.7881 45.0888 44.5563C45.4403 44.3245 45.7073 43.9852 45.8499 43.5891C45.9926 43.193 46.0032 42.7613 45.8802 42.3587C45.7572 41.956 45.5072 41.604 45.1675 41.3552L40 37.075Z" fill="#FFC805"/>
<path d="M52.675 21.475C52.675 18.1134 51.3396 14.8894 48.9626 12.5124C46.5856 10.1354 43.3616 8.79999 40 8.79999C36.6384 8.79999 33.4145 10.1354 31.0374 12.5124C28.6604 14.8894 27.325 18.1134 27.325 21.475C27.325 28.4755 32.9995 40 40 40C47.0005 40 52.675 28.4755 52.675 21.475Z" fill="#FFC805"/>
<path d="M66.325 13.675C66.8635 13.675 67.3 13.2385 67.3 12.7C67.3 12.1615 66.8635 11.725 66.325 11.725C65.7865 11.725 65.35 12.1615 65.35 12.7C65.35 13.2385 65.7865 13.675 66.325 13.675Z" fill="#00BAC6"/>
<path d="M32.2 60.475C32.7385 60.475 33.175 60.0385 33.175 59.5C33.175 58.9615 32.7385 58.525 32.2 58.525C31.6615 58.525 31.225 58.9615 31.225 59.5C31.225 60.0385 31.6615 60.475 32.2 60.475Z" fill="#D11B88"/>
<path d="M11.725 53.65C12.2635 53.65 12.7 53.2135 12.7 52.675C12.7 52.1365 12.2635 51.7 11.725 51.7C11.1865 51.7 10.75 52.1365 10.75 52.675C10.75 53.2135 11.1865 53.65 11.725 53.65Z" fill="#FFA149"/>
</g>
<defs>
<linearGradient id="paint0_linear_1621_12036" x1="53.806" y1="59.0126" x2="59.812" y2="59.0126" gradientUnits="userSpaceOnUse">
<stop stop-color="#D4D8E1"/>
<stop offset="1" stop-color="#F3F4F5"/>
</linearGradient>
<linearGradient id="paint1_linear_1621_12036" x1="37.348" y1="57.0628" x2="42.9055" y2="57.0628" gradientUnits="userSpaceOnUse">
<stop stop-color="#D4D8E1"/>
<stop offset="1" stop-color="#F3F4F5"/>
</linearGradient>
<clipPath id="clip0_1621_12036">
<rect width="62.4" height="62.4" fill="white" transform="translate(8.79999 8.79999)"/>
</clipPath>
</defs>
</svg>
