<svg width="80" height="80" viewBox="0 0 80 80" fill="none" xmlns="http://www.w3.org/2000/svg">
<rect width="80" height="80" rx="10" fill="#022343"/>
<g clip-path="url(#clip0_1574_5917)">
<path fill-rule="evenodd" clip-rule="evenodd" d="M15 44.5H35.5L29.1833 35.6296L32.6512 36.7145L27.0143 26.4625L28.7301 27.1664L24.8534 19L20.819 27.6235L22.3769 26.4625L17.6141 36.6593L20.819 35.6296L15 44.5Z" fill="#003C76"/>
<g clip-path="url(#clip1_1574_5917)">
<path d="M32.2793 40.1806C32.2986 40.1488 32.3243 40.1214 32.3546 40.0999C32.385 40.0784 32.4194 40.0634 32.4558 40.0557C32.4921 40.048 32.5297 40.0478 32.5661 40.0552C32.6026 40.0626 32.6371 40.0773 32.6676 40.0986C32.6982 40.1198 32.724 40.147 32.7436 40.1786C32.7632 40.2102 32.7762 40.2454 32.7817 40.2822C32.7872 40.319 32.7851 40.3565 32.7755 40.3924C32.766 40.4283 32.7492 40.4619 32.7261 40.4911L29.5982 44.9998H29.3301V44.4346L32.2793 40.1895V40.1806Z" fill="#434343"/>
<path fill-rule="evenodd" clip-rule="evenodd" d="M40.1821 29.4317L40.7496 30.2517C40.7822 30.2977 40.7997 30.3528 40.7997 30.4092C40.7997 30.4656 40.7822 30.5207 40.7496 30.5667L33.8703 40.4913C33.8451 40.527 33.8116 40.5562 33.7727 40.5765C33.7339 40.5967 33.6907 40.6073 33.6469 40.6074H32.5075C32.4558 40.6071 32.4053 40.5921 32.3618 40.5644C32.3183 40.5366 32.2834 40.4972 32.2613 40.4506C32.2391 40.4039 32.2305 40.352 32.2365 40.3007C32.2425 40.2494 32.2629 40.2009 32.2952 40.1606L39.7353 29.4295C39.7555 29.3998 39.7813 29.3743 39.8113 29.3546C39.8414 29.335 39.875 29.3214 39.9103 29.3148C39.9456 29.3081 39.9819 29.3085 40.017 29.3159C40.0522 29.3233 40.0855 29.3376 40.1151 29.358C40.1429 29.3791 40.1677 29.4039 40.1888 29.4317H40.1821Z" fill="#9B7A04"/>
<path fill-rule="evenodd" clip-rule="evenodd" d="M40.7518 30.2563L47.5552 40.0669H48.5539C48.59 40.0669 48.6257 40.074 48.659 40.0878C48.6924 40.1016 48.7227 40.1219 48.7482 40.1474C48.7737 40.1729 48.794 40.2032 48.8078 40.2365C48.8216 40.2699 48.8287 40.3056 48.8287 40.3417V44.7253C48.8287 44.7614 48.8216 44.7971 48.8078 44.8305C48.794 44.8638 48.7737 44.8941 48.7482 44.9196C48.7227 44.9451 48.6924 44.9654 48.659 44.9792C48.6257 44.993 48.59 45.0001 48.5539 45.0001H33.6447C33.5722 44.9995 33.5029 44.9703 33.4518 44.9188C33.4007 44.8674 33.3721 44.7978 33.3721 44.7253V40.335C33.3722 40.2718 33.3935 40.2105 33.4324 40.1607L40.2983 30.2518C40.3398 30.1926 40.4029 30.1522 40.474 30.1392C40.5451 30.1263 40.6184 30.1418 40.6781 30.1825C40.7082 30.2009 40.7334 30.2262 40.7518 30.2563Z" fill="#C7B025"/>
<path d="M61.1841 40.4915C61.1433 40.4314 61.1277 40.3578 61.1406 40.2863C61.1536 40.2148 61.1941 40.1513 61.2534 40.1094C61.283 40.0891 61.3163 40.0748 61.3514 40.0674C61.3866 40.06 61.4229 40.0596 61.4581 40.0662C61.4934 40.0729 61.5271 40.0864 61.5571 40.1061C61.5872 40.1258 61.613 40.1512 61.6332 40.1809L64.5824 44.426V44.9913H64.3121L61.1841 40.4915Z" fill="#434343"/>
<path d="M64.3121 45.0001V42.8038C64.3115 42.7672 64.3182 42.7308 64.3319 42.6968C64.3456 42.6628 64.3659 42.6318 64.3918 42.6058C64.4176 42.5798 64.4483 42.5592 64.4822 42.5452C64.5161 42.5313 64.5525 42.5243 64.5891 42.5246H64.9466C64.9846 42.5211 65.0229 42.5256 65.0591 42.5378C65.0953 42.55 65.1285 42.5696 65.1567 42.5954C65.1849 42.6211 65.2074 42.6525 65.2228 42.6874C65.2382 42.7223 65.2462 42.7601 65.2462 42.7983C65.2462 42.8364 65.2382 42.8742 65.2228 42.9091C65.2074 42.944 65.1849 42.9754 65.1567 43.0011C65.1285 43.0269 65.0953 43.0465 65.0591 43.0587C65.0229 43.0709 64.9846 43.0754 64.9466 43.0719H64.8639V44.9934L64.3121 45.0001Z" fill="black"/>
<path fill-rule="evenodd" clip-rule="evenodd" d="M60.5496 40.6074V44.7252C60.5496 44.798 60.5206 44.8679 60.4691 44.9195C60.4176 44.971 60.3477 45 60.2748 45H48.5427C48.4702 44.9994 48.4009 44.9702 48.3498 44.9187C48.2988 44.8672 48.2701 44.7977 48.2701 44.7252V40.6074H60.5496Z" fill="#9B7A04"/>
<path fill-rule="evenodd" clip-rule="evenodd" d="M60.5496 40.6074V42.5244C60.549 42.5969 60.5198 42.6662 60.4683 42.7173C60.4168 42.7683 60.3473 42.797 60.2748 42.797H48.5427C48.4704 42.797 48.4011 42.7683 48.3499 42.7172C48.2988 42.666 48.2701 42.5967 48.2701 42.5244V40.6074H60.5496Z" fill="#80470F"/>
<path d="M47.1778 40.4915C47.137 40.4314 47.1214 40.3578 47.1343 40.2863C47.1473 40.2148 47.1878 40.1513 47.2471 40.1094C47.2767 40.0891 47.31 40.0748 47.3452 40.0674C47.3803 40.06 47.4166 40.0596 47.4519 40.0662C47.4872 40.0729 47.5208 40.0864 47.5508 40.1061C47.5809 40.1258 47.6067 40.1512 47.6269 40.1809L50.5761 44.426V44.9913H50.3013L47.1734 40.4826L47.1778 40.4915Z" fill="#434343"/>
<path fill-rule="evenodd" clip-rule="evenodd" d="M39.9587 29.3086H53.9675C54.0157 29.3087 54.063 29.3216 54.1046 29.3459C54.1462 29.3702 54.1806 29.4052 54.2043 29.4471L61.6399 40.1715C61.6606 40.2009 61.6753 40.2341 61.6831 40.2692C61.6908 40.3043 61.6915 40.3406 61.685 40.376C61.6786 40.4114 61.6652 40.4451 61.6455 40.4752C61.6259 40.5053 61.6004 40.5312 61.5706 40.5514C61.5218 40.584 61.464 40.6004 61.4053 40.5983H47.4032C47.3595 40.5979 47.3164 40.5872 47.2776 40.5671C47.2387 40.5469 47.2052 40.5177 47.1798 40.4821L39.7353 29.7398C39.6939 29.6799 39.6779 29.6061 39.6909 29.5345C39.7039 29.4628 39.7447 29.3993 39.8045 29.3577C39.8509 29.3271 39.9053 29.3108 39.9609 29.3108L39.9587 29.3086Z" fill="#EFD952"/>
<path d="M50.3008 45.0001V42.8038C50.3002 42.7674 50.3069 42.7312 50.3204 42.6973C50.334 42.6634 50.3541 42.6326 50.3797 42.6066C50.4053 42.5806 50.4358 42.56 50.4694 42.5459C50.5031 42.5318 50.5392 42.5245 50.5756 42.5246H50.9331C50.9711 42.5211 51.0095 42.5256 51.0456 42.5378C51.0818 42.55 51.115 42.5696 51.1432 42.5954C51.1714 42.6211 51.1939 42.6525 51.2093 42.6874C51.2247 42.7223 51.2327 42.7601 51.2327 42.7983C51.2327 42.8364 51.2247 42.8742 51.2093 42.9091C51.1939 42.944 51.1714 42.9754 51.1432 43.0011C51.115 43.0269 51.0818 43.0465 51.0456 43.0587C51.0095 43.0709 50.9711 43.0754 50.9331 43.0719H50.8504V44.9934L50.3008 45.0001Z" fill="black"/>
<path d="M29.6051 45.0001V42.8038C29.6057 42.7674 29.5991 42.7312 29.5855 42.6973C29.572 42.6634 29.5518 42.6326 29.5262 42.6066C29.5007 42.5806 29.4702 42.56 29.4365 42.5459C29.4029 42.5318 29.3668 42.5245 29.3303 42.5246H28.9728C28.9348 42.5211 28.8965 42.5256 28.8603 42.5378C28.8242 42.55 28.7909 42.5696 28.7627 42.5954C28.7345 42.6211 28.712 42.6525 28.6966 42.6874C28.6812 42.7223 28.6733 42.7601 28.6733 42.7983C28.6733 42.8364 28.6812 42.8742 28.6966 42.9091C28.712 42.944 28.7345 42.9754 28.7627 43.0011C28.7909 43.0269 28.8242 43.0465 28.8603 43.0587C28.8965 43.0709 28.9348 43.0754 28.9728 43.0719H29.0555V44.9934L29.6051 45.0001Z" fill="black"/>
<path fill-rule="evenodd" clip-rule="evenodd" d="M41.3685 32.1062V44.7253C41.3685 44.7982 41.3396 44.8681 41.288 44.9196C41.2365 44.9711 41.1666 45.0001 41.0937 45.0001H35.9884C35.9522 45.0004 35.9164 44.9935 35.8829 44.9798C35.8494 44.9661 35.819 44.9458 35.7934 44.9203C35.7679 44.8947 35.7476 44.8643 35.7339 44.8308C35.7202 44.7973 35.7133 44.7615 35.7136 44.7253C35.7145 44.6956 35.7197 44.6663 35.7292 44.6381L40.4212 30.7344L41.3707 32.1062H41.3685Z" fill="#F0C167"/>
<path fill-rule="evenodd" clip-rule="evenodd" d="M41.3685 43.1613C39.8071 42.3641 38.4319 41.2456 37.3334 39.8792L40.4189 30.7344L41.3685 32.1062V43.1613Z" fill="#F4D285"/>
<path fill-rule="evenodd" clip-rule="evenodd" d="M41.3685 37.3679C40.3868 36.3183 39.7222 35.0123 39.4515 33.6009L40.4189 30.7344L41.3685 32.1062V37.3679Z" fill="#FAEDCD"/>
</g>
<g clip-path="url(#clip2_1574_5917)">
<path fill-rule="evenodd" clip-rule="evenodd" d="M25.4751 32.6978C25.5683 32.6972 25.6596 32.7243 25.7374 32.7756C25.8152 32.827 25.876 32.9003 25.9121 32.9862C25.9482 33.0722 25.958 33.167 25.9402 33.2585C25.9224 33.35 25.8778 33.4342 25.812 33.5003C25.7463 33.5664 25.6625 33.6116 25.5711 33.63C25.4797 33.6484 25.3849 33.6392 25.2987 33.6037C25.2125 33.5682 25.1388 33.5078 25.0869 33.4304C25.035 33.3529 25.0074 33.2617 25.0074 33.1685C25.0074 33.0442 25.0565 32.9249 25.1442 32.8367C25.2318 32.7485 25.3507 32.6986 25.4751 32.6978Z" fill="#F4D285"/>
<path fill-rule="evenodd" clip-rule="evenodd" d="M23.7257 34.3408C23.7966 34.3408 23.8659 34.3618 23.9248 34.4012C23.9837 34.4406 24.0297 34.4966 24.0568 34.5621C24.0839 34.6275 24.091 34.6996 24.0772 34.7691C24.0633 34.8386 24.0292 34.9025 23.9791 34.9526C23.929 35.0027 23.8651 35.0369 23.7956 35.0507C23.7261 35.0645 23.654 35.0574 23.5885 35.0303C23.5231 35.0032 23.4671 34.9572 23.4277 34.8983C23.3883 34.8394 23.3673 34.7701 23.3673 34.6992C23.3673 34.6041 23.4051 34.513 23.4723 34.4458C23.5395 34.3786 23.6306 34.3408 23.7257 34.3408Z" fill="#F4D285"/>
<path fill-rule="evenodd" clip-rule="evenodd" d="M22.7933 31.978C22.8534 31.978 22.9121 31.9958 22.9621 32.0292C23.012 32.0626 23.0509 32.11 23.0739 32.1655C23.0969 32.221 23.1029 32.2821 23.0912 32.341C23.0795 32.3999 23.0506 32.454 23.0081 32.4965C22.9656 32.539 22.9115 32.5679 22.8526 32.5796C22.7937 32.5913 22.7326 32.5853 22.6771 32.5623C22.6216 32.5393 22.5742 32.5004 22.5408 32.4505C22.5074 32.4005 22.4896 32.3418 22.4896 32.2817C22.4896 32.2012 22.5216 32.1239 22.5786 32.067C22.6355 32.01 22.7128 31.978 22.7933 31.978Z" fill="white"/>
<path fill-rule="evenodd" clip-rule="evenodd" d="M28.2358 36.7706C28.2965 36.7655 28.3576 36.7731 28.4152 36.7929C28.4728 36.8126 28.5257 36.8441 28.5705 36.8854C28.6153 36.9266 28.6511 36.9767 28.6756 37.0325C28.7001 37.0883 28.7127 37.1485 28.7127 37.2094C28.7127 37.2703 28.7001 37.3306 28.6756 37.3864C28.6511 37.4421 28.6153 37.4922 28.5705 37.5335C28.5257 37.5747 28.4728 37.6062 28.4152 37.626C28.3576 37.6457 28.2965 37.6533 28.2358 37.6483C28.1257 37.6391 28.0231 37.5889 27.9483 37.5076C27.8735 37.4263 27.8319 37.3199 27.8319 37.2094C27.8319 37.099 27.8735 36.9925 27.9483 36.9112C28.0231 36.8299 28.1257 36.7797 28.2358 36.7706Z" fill="#F4D285"/>
<path fill-rule="evenodd" clip-rule="evenodd" d="M25.4751 32.9282C25.5225 32.9282 25.5689 32.9423 25.6084 32.9687C25.6478 32.995 25.6786 33.0325 25.6967 33.0763C25.7149 33.1202 25.7196 33.1684 25.7104 33.215C25.7011 33.2615 25.6783 33.3043 25.6447 33.3378C25.6112 33.3714 25.5684 33.3942 25.5219 33.4035C25.4753 33.4127 25.4271 33.408 25.3833 33.3898C25.3394 33.3717 25.3019 33.3409 25.2756 33.3015C25.2492 33.262 25.2351 33.2156 25.2351 33.1682C25.2351 33.1045 25.2604 33.0435 25.3054 32.9985C25.3504 32.9535 25.4114 32.9282 25.4751 32.9282Z" fill="white"/>
<path fill-rule="evenodd" clip-rule="evenodd" d="M22.3408 36.9561C22.4566 36.9567 22.5696 36.9915 22.6656 37.0563C22.7616 37.1211 22.8363 37.2128 22.8801 37.32C22.924 37.4272 22.9352 37.5449 22.9123 37.6584C22.8893 37.7719 22.8332 37.8761 22.7511 37.9578C22.6691 38.0394 22.5646 38.095 22.451 38.1173C22.3374 38.1397 22.2197 38.1279 22.1127 38.0835C22.0058 38.039 21.9144 37.9639 21.8502 37.8676C21.7859 37.7712 21.7516 37.658 21.7516 37.5422C21.7516 37.465 21.7668 37.3885 21.7965 37.3172C21.8261 37.2459 21.8696 37.1811 21.9243 37.1267C21.9791 37.0722 22.0441 37.0291 22.1155 36.9998C22.187 36.9705 22.2636 36.9557 22.3408 36.9561Z" fill="#F4D285"/>
<path fill-rule="evenodd" clip-rule="evenodd" d="M22.3408 37.2202C22.4051 37.2166 22.4691 37.2323 22.5243 37.2654C22.5796 37.2985 22.6237 37.3474 22.6509 37.4058C22.6781 37.4642 22.6871 37.5295 22.6768 37.5931C22.6665 37.6567 22.6374 37.7157 22.5932 37.7626C22.549 37.8094 22.4917 37.842 22.4288 37.8559C22.3659 37.8699 22.3003 37.8647 22.2404 37.8409C22.1805 37.8172 22.1291 37.776 22.0929 37.7228C22.0566 37.6695 22.0372 37.6066 22.0371 37.5422C22.0362 37.4596 22.0674 37.38 22.124 37.3199C22.1807 37.2599 22.2584 37.2242 22.3408 37.2202Z" fill="white"/>
<path fill-rule="evenodd" clip-rule="evenodd" d="M27.3702 35.1548C27.4202 35.1548 27.469 35.1697 27.5106 35.1975C27.5521 35.2253 27.5844 35.2649 27.6034 35.3111C27.6224 35.3574 27.6272 35.4082 27.6172 35.4572C27.6072 35.5061 27.5829 35.5511 27.5473 35.5862C27.5118 35.6213 27.4666 35.6451 27.4175 35.6545C27.3684 35.6638 27.3176 35.6584 27.2716 35.6389C27.2256 35.6193 27.1864 35.5865 27.1591 35.5447C27.1318 35.5028 27.1175 35.4538 27.1181 35.4038C27.1189 35.3375 27.1458 35.2742 27.193 35.2275C27.2402 35.1809 27.3039 35.1548 27.3702 35.1548Z" fill="white"/>
<path fill-rule="evenodd" clip-rule="evenodd" d="M26.5229 31C26.5727 31 26.6215 31.0148 26.6629 31.0425C26.7044 31.0702 26.7367 31.1096 26.7557 31.1556C26.7748 31.2017 26.7798 31.2524 26.7701 31.3013C26.7604 31.3502 26.7364 31.3951 26.7011 31.4303C26.6659 31.4656 26.6209 31.4896 26.572 31.4993C26.5231 31.509 26.4725 31.504 26.4264 31.485C26.3803 31.4659 26.341 31.4336 26.3133 31.3921C26.2856 31.3507 26.2708 31.3019 26.2708 31.2521C26.2708 31.1852 26.2973 31.1211 26.3446 31.0738C26.3919 31.0266 26.456 31 26.5229 31V31Z" fill="white"/>
<path fill-rule="evenodd" clip-rule="evenodd" d="M29.0649 44.6002C29.4475 44.6002 29.8144 44.7521 30.085 45.0227C30.3555 45.2932 30.5075 45.6602 30.5075 46.0428C30.5075 46.4254 30.3555 46.7923 30.085 47.0629C29.8144 47.3334 29.4475 47.4854 29.0649 47.4854H21.8883V44.6002H29.0649Z" fill="#7C4732"/>
<path fill-rule="evenodd" clip-rule="evenodd" d="M30.462 46.416C30.3787 46.7228 30.1967 46.9937 29.9443 47.1869C29.6918 47.3801 29.3828 47.4848 29.0649 47.4851H21.8883V46.416H30.462Z" fill="#573527"/>
<path fill-rule="evenodd" clip-rule="evenodd" d="M21.8883 44.6002C22.1735 44.6008 22.4521 44.6859 22.6889 44.8448C22.9258 45.0036 23.1102 45.2292 23.2189 45.4928C23.3276 45.7565 23.3558 46.0464 23.2998 46.3261C23.2438 46.6057 23.1061 46.8625 22.9043 47.0639C22.7024 47.2654 22.4453 47.4025 22.1656 47.4579C21.8858 47.5133 21.5959 47.4846 21.3325 47.3753C21.0691 47.266 20.8439 47.0811 20.6855 46.8439C20.5272 46.6068 20.4426 46.328 20.4426 46.0428C20.4426 45.8531 20.48 45.6652 20.5527 45.49C20.6254 45.3148 20.732 45.1556 20.8662 45.0216C21.0005 44.8876 21.1599 44.7814 21.3353 44.7091C21.5107 44.6368 21.6986 44.5998 21.8883 44.6002Z" fill="#CAA286"/>
<path d="M21.8883 44.9704C22.1395 44.9726 22.3822 45.0621 22.5748 45.2234C22.7674 45.3848 22.898 45.608 22.9443 45.855C22.9905 46.102 22.9495 46.3574 22.8283 46.5775C22.7072 46.7976 22.5133 46.9688 22.2798 47.0618C22.0464 47.1548 21.7879 47.1638 21.5486 47.0874C21.3092 47.0109 21.1039 46.8537 20.9676 46.6425C20.8313 46.4314 20.7726 46.1795 20.8015 45.9299C20.8304 45.6803 20.9451 45.4485 21.1259 45.2741C21.2278 45.1754 21.348 45.0978 21.4799 45.0457C21.6117 44.9936 21.7526 44.968 21.8943 44.9704H21.8883ZM22.4653 45.4776C22.3894 45.4014 22.2992 45.341 22.2 45.2998C22.1007 45.2586 21.9942 45.2374 21.8867 45.2374C21.7792 45.2374 21.6728 45.2586 21.5735 45.2998C21.4742 45.341 21.3841 45.4014 21.3082 45.4776C21.1561 45.6311 21.0708 45.8385 21.0708 46.0546C21.0708 46.2707 21.1561 46.4781 21.3082 46.6317C21.4224 46.7456 21.5679 46.8233 21.7262 46.8547C21.8845 46.8861 22.0486 46.8699 22.1977 46.8082C22.3468 46.7465 22.4743 46.6419 22.5641 46.5078C22.6539 46.3737 22.7019 46.216 22.7022 46.0546C22.702 45.8386 22.6169 45.6314 22.4653 45.4776Z" fill="#8E5C47"/>
<path d="M21.8883 45.6719C21.9859 45.6715 22.0798 45.7097 22.1495 45.7782C22.1842 45.8129 22.2117 45.8541 22.2305 45.8994C22.2493 45.9448 22.259 45.9933 22.259 46.0424C22.259 46.0915 22.2493 46.1401 22.2305 46.1854C22.2117 46.2308 22.1842 46.272 22.1495 46.3067C22.0971 46.3579 22.0308 46.3926 21.9588 46.4064C21.8868 46.4203 21.8124 46.4126 21.7447 46.3845C21.677 46.3563 21.6192 46.3089 21.5783 46.248C21.5374 46.1872 21.5153 46.1157 21.5147 46.0424C21.5153 45.9435 21.5546 45.8487 21.624 45.7782C21.6589 45.7439 21.7002 45.7169 21.7455 45.6986C21.7909 45.6804 21.8394 45.6713 21.8883 45.6719Z" fill="#8E5C47"/>
<path fill-rule="evenodd" clip-rule="evenodd" d="M25.305 36.5304C27.1272 37.4567 29.0619 41.2136 28.1052 44.0168C28.0748 44.1109 28.1052 44.3205 28.3056 44.1261C28.5668 43.868 28.828 43.0145 28.8705 42.6805C28.8948 42.4891 28.9373 42.0002 29.1499 42.6379C30.0003 45.1739 28.3785 47.1116 26.4743 47.1116H26.4469C26.6615 46.9151 26.8117 46.6584 26.878 46.3751C26.9444 46.0919 26.9237 45.7952 26.8187 45.5239C26.7137 45.2525 26.5293 45.0192 26.2896 44.8544C26.0499 44.6895 25.766 44.6008 25.4751 44.5999H21.8883C21.7892 44.3399 21.718 44.0701 21.6757 43.7951C21.3082 41.3927 22.605 40.5515 23.4767 38.8021C23.589 38.5774 23.7287 38.6351 23.8016 38.8659C23.9001 39.2315 23.9531 39.6079 23.9596 39.9866C23.9596 40.1566 24.075 40.1901 24.1691 40.0412C24.5822 39.4034 24.977 37.8819 24.9102 36.7521C24.895 36.4484 25.0408 36.3967 25.305 36.5304Z" fill="#F4D285"/>
<path fill-rule="evenodd" clip-rule="evenodd" d="M25.7788 42.0791C26.1827 42.9903 27.7832 44.36 27.4127 45.9696C27.3125 46.41 26.9207 46.8443 26.6443 46.8808C26.7995 46.6651 26.8922 46.4108 26.9124 46.1459C26.9325 45.881 26.8792 45.6156 26.7584 45.379C26.6376 45.1424 26.4539 44.9436 26.2275 44.8046C26.0011 44.6655 25.7407 44.5916 25.4751 44.5908H24.4242C24.3361 43.8619 24.8008 42.7169 25.469 42.0154C25.6876 41.7876 25.7059 41.8999 25.7727 42.07L25.7788 42.0791Z" fill="white"/>
<path fill-rule="evenodd" clip-rule="evenodd" d="M26.6443 46.8898C27.0519 46.7723 27.4083 46.5214 27.6561 46.1771C27.904 45.8329 28.029 45.4154 28.011 44.9916C28.011 43.0418 26.292 41.912 25.8851 39.868C25.879 39.8299 25.8601 39.7951 25.8316 39.7691C25.803 39.7432 25.7665 39.7277 25.728 39.7252C25.6896 39.7227 25.6514 39.7334 25.6197 39.7555C25.5881 39.7776 25.565 39.8098 25.554 39.8468C25.1622 40.8156 24.2056 41.6356 24.0355 42.6712C24.0112 42.8292 23.9231 42.8778 23.8411 42.7077C23.6886 42.2896 23.5965 41.8519 23.5678 41.4078C23.5465 41.1922 23.3673 41.3653 23.337 41.4078C22.9941 41.8577 22.7493 42.3745 22.6185 42.9248C22.4878 43.4751 22.4738 44.0468 22.5777 44.6028H21.8852C21.7885 44.3423 21.7183 44.0726 21.6757 43.798C21.3082 41.3957 22.605 40.5544 23.4767 38.805C23.589 38.5803 23.7287 38.638 23.8016 38.8688C23.9001 39.2345 23.9531 39.6109 23.9596 39.9895C23.9596 40.1596 24.075 40.193 24.1691 40.0442C24.5822 39.4064 24.977 37.8848 24.9102 36.755C24.895 36.4513 25.0408 36.3997 25.305 36.5333C27.1272 37.4596 29.0619 41.2165 28.1052 44.0197C28.0748 44.1139 28.1052 44.3234 28.3056 44.129C28.5668 43.8709 28.828 43.0175 28.8705 42.6834C28.8948 42.4921 28.9373 42.0031 29.1499 42.6409C30.0003 45.1768 28.3785 47.1145 26.4743 47.1145H26.4469C26.5197 47.0471 26.5858 46.9729 26.6443 46.8928V46.8898Z" fill="#E68F30"/>
<path fill-rule="evenodd" clip-rule="evenodd" d="M24.3817 39.6312C24.7562 38.7187 24.9362 37.7381 24.9102 36.7521C24.8919 36.4484 25.0408 36.3967 25.305 36.5304C26.9966 37.3929 28.7946 40.7185 28.2631 43.4245C28.7187 40.8248 26.5927 38.1825 25.7788 37.6814C25.6269 37.5873 25.5388 37.6511 25.4751 37.8029C25.1819 38.4503 24.815 39.0618 24.3817 39.6252V39.6312Z" fill="#C2651C"/>
<path fill-rule="evenodd" clip-rule="evenodd" d="M21.6757 43.7951C21.3082 41.3927 22.605 40.5515 23.4767 38.8021C23.589 38.5774 23.7287 38.6351 23.8016 38.8659C23.9001 39.2315 23.9531 39.6079 23.9596 39.9866C23.9407 39.937 23.9091 39.8933 23.8681 39.8598C23.8271 39.8262 23.778 39.8039 23.7257 39.7952C23.4858 39.7709 21.5997 41.9212 21.6757 43.7951Z" fill="#C2651C"/>
<path fill-rule="evenodd" clip-rule="evenodd" d="M28.3056 44.1264C28.5668 43.8682 28.828 43.0148 28.8705 42.6807C28.8948 42.4894 28.9373 42.0004 29.1499 42.6382C29.6298 44.0596 29.3261 45.2987 28.6336 46.1065C29.3808 45.1377 29.0892 43.2881 28.9647 43.3033C28.8402 43.3185 28.6853 43.7953 28.3056 44.1264Z" fill="#C2651C"/>
<path fill-rule="evenodd" clip-rule="evenodd" d="M27.622 47.1118C27.9936 47.1289 28.3443 47.2885 28.6012 47.5574C28.8581 47.8264 29.0015 48.184 29.0015 48.556C29.0015 48.9279 28.8581 49.2855 28.6012 49.5545C28.3443 49.8234 27.9936 49.983 27.622 50.0001H20.4424V47.1118H27.622Z" fill="#7C4732"/>
<path fill-rule="evenodd" clip-rule="evenodd" d="M29.0221 48.9189C28.94 49.2261 28.7589 49.4975 28.5069 49.6913C28.2549 49.8851 27.946 49.9905 27.6281 49.991H20.4424V48.9189H29.0221Z" fill="#573527"/>
<path fill-rule="evenodd" clip-rule="evenodd" d="M20.4426 47.1118C20.7288 47.1112 21.0087 47.1956 21.2469 47.3542C21.4851 47.5128 21.6709 47.7386 21.7807 48.0028C21.8905 48.2671 21.9194 48.558 21.8637 48.8388C21.808 49.1195 21.6702 49.3773 21.4679 49.5797C21.2655 49.7821 21.0077 49.9198 20.7269 49.9755C20.4462 50.0312 20.1553 50.0023 19.891 49.8925C19.6267 49.7827 19.401 49.5969 19.2424 49.3587C19.0838 49.1205 18.9994 48.8406 19 48.5544C19.0008 48.1721 19.1531 47.8056 19.4234 47.5352C19.6938 47.2649 20.0603 47.1126 20.4426 47.1118Z" fill="#CAA286"/>
<path d="M20.4426 47.4731C20.6211 47.4727 20.7969 47.5163 20.9545 47.6002C21.1121 47.684 21.2466 47.8055 21.3459 47.9537C21.4453 48.102 21.5065 48.2725 21.5242 48.4502C21.5418 48.6278 21.5154 48.807 21.4471 48.9719C21.3789 49.1369 21.271 49.2824 21.133 49.3956C20.995 49.5088 20.8311 49.5862 20.6561 49.6209C20.481 49.6556 20.3 49.6466 20.1293 49.5946C19.9585 49.5425 19.8033 49.4492 19.6773 49.3227C19.5262 49.1711 19.4233 48.9782 19.3817 48.7682C19.3401 48.5582 19.3616 48.3406 19.4434 48.1428C19.5253 47.945 19.6638 47.7759 19.8416 47.6567C20.0194 47.5375 20.2286 47.4737 20.4426 47.4731ZM21.0197 47.9773C20.8858 47.8438 20.7099 47.7608 20.5217 47.7425C20.3336 47.7242 20.1449 47.7717 19.9879 47.8769C19.8309 47.9821 19.7152 48.1385 19.6605 48.3195C19.6059 48.5004 19.6157 48.6948 19.6882 48.8693C19.7608 49.0438 19.8917 49.1878 20.0585 49.2767C20.2253 49.3656 20.4178 49.3938 20.6032 49.3567C20.7885 49.3195 20.9552 49.2193 21.0749 49.073C21.1946 48.9267 21.2599 48.7434 21.2596 48.5543C21.2589 48.3379 21.1727 48.1304 21.0197 47.9773Z" fill="#8E5C47"/>
<path d="M20.4426 48.1841C20.4917 48.1841 20.5403 48.1937 20.5856 48.2125C20.631 48.2312 20.6722 48.2587 20.7069 48.2934C20.7424 48.3272 20.7709 48.3676 20.7907 48.4124C20.8105 48.4573 20.8213 48.5056 20.8223 48.5546C20.8269 48.6063 20.8208 48.6584 20.8042 48.7076C20.7876 48.7567 20.761 48.8019 20.726 48.8402C20.691 48.8785 20.6484 48.9091 20.6009 48.9301C20.5534 48.951 20.5021 48.9618 20.4502 48.9618C20.3983 48.9618 20.347 48.951 20.2995 48.9301C20.252 48.9091 20.2094 48.8785 20.1744 48.8402C20.1394 48.8019 20.1128 48.7567 20.0962 48.7076C20.0796 48.6584 20.0735 48.6063 20.0782 48.5546C20.0779 48.506 20.0874 48.4577 20.1062 48.4129C20.125 48.368 20.1526 48.3274 20.1875 48.2934C20.2217 48.2588 20.2623 48.2314 20.3072 48.2126C20.352 48.1938 20.4001 48.1841 20.4487 48.1841H20.4426Z" fill="#8E5C47"/>
<path fill-rule="evenodd" clip-rule="evenodd" d="M30.5075 47.1119C30.7027 47.1029 30.8977 47.1336 31.0807 47.2022C31.2637 47.2707 31.431 47.3756 31.5723 47.5106C31.7136 47.6456 31.8261 47.8078 31.9029 47.9875C31.9798 48.1672 32.0194 48.3606 32.0194 48.556C32.0194 48.7514 31.9798 48.9448 31.9029 49.1245C31.8261 49.3042 31.7136 49.4664 31.5723 49.6014C31.431 49.7364 31.2637 49.8413 31.0807 49.9098C30.8977 49.9784 30.7027 50.0091 30.5075 50.0001H23.3309V47.1119H30.5075Z" fill="#7C4732"/>
<path fill-rule="evenodd" clip-rule="evenodd" d="M31.9046 48.9189C31.8223 49.2266 31.6407 49.4984 31.3881 49.6923C31.1355 49.8861 30.8259 49.9911 30.5075 49.991H23.3309V48.9189H31.9046Z" fill="#573527"/>
<path fill-rule="evenodd" clip-rule="evenodd" d="M23.3309 47.1118C23.6171 47.1112 23.897 47.1956 24.1352 47.3542C24.3734 47.5128 24.5592 47.7386 24.669 48.0028C24.7787 48.2671 24.8076 48.558 24.7519 48.8388C24.6963 49.1195 24.5585 49.3773 24.3562 49.5797C24.1538 49.7821 23.8959 49.9198 23.6152 49.9755C23.3345 50.0312 23.0436 50.0023 22.7793 49.8925C22.515 49.7827 22.2893 49.5969 22.1306 49.3587C21.972 49.1205 21.8877 48.8406 21.8883 48.5544C21.8883 48.1718 22.0403 47.8049 22.3108 47.5344C22.5814 47.2638 22.9483 47.1118 23.3309 47.1118Z" fill="#B28161"/>
<path d="M23.3309 47.4732C23.582 47.4761 23.8243 47.5662 24.0165 47.7279C24.2086 47.8897 24.3386 48.1131 24.3843 48.36C24.43 48.607 24.3886 48.8621 24.2671 49.0819C24.1456 49.3017 23.9515 49.4725 23.7181 49.5651C23.4847 49.6578 23.2263 49.6665 22.9872 49.5898C22.748 49.5132 22.5429 49.3558 22.4068 49.1447C22.2708 48.9336 22.2122 48.6819 22.2412 48.4324C22.2701 48.1829 22.3848 47.9512 22.5656 47.7769C22.7712 47.5795 23.0459 47.4705 23.3309 47.4732ZM23.9079 47.9773C23.8323 47.9013 23.7424 47.841 23.6434 47.7998C23.5443 47.7586 23.4381 47.7374 23.3309 47.7374C23.2237 47.7374 23.1175 47.7586 23.0184 47.7998C22.9194 47.841 22.8295 47.9013 22.7539 47.9773C22.6399 48.0916 22.5623 48.2371 22.5308 48.3954C22.4994 48.5537 22.5156 48.7177 22.5773 48.8669C22.6391 49.016 22.7436 49.1435 22.8777 49.2333C23.0118 49.3231 23.1695 49.3711 23.3309 49.3714C23.5469 49.3712 23.7541 49.2861 23.9079 49.1345C23.9841 49.0586 24.0445 48.9684 24.0857 48.8691C24.1269 48.7698 24.1481 48.6634 24.1481 48.5559C24.1481 48.4484 24.1269 48.342 24.0857 48.2427C24.0445 48.1434 23.9841 48.0532 23.9079 47.9773Z" fill="#7B4E3A"/>
<path d="M23.3309 48.1841C23.4289 48.1849 23.5227 48.2242 23.592 48.2935C23.6613 48.3628 23.7006 48.4566 23.7014 48.5546C23.7021 48.6038 23.6928 48.6526 23.674 48.698C23.6552 48.7434 23.6273 48.7845 23.5921 48.8188C23.5579 48.8534 23.5173 48.8809 23.4724 48.8997C23.4276 48.9184 23.3795 48.9281 23.3309 48.9282C23.2319 48.9276 23.1371 48.8883 23.0666 48.8188C23.0154 48.7664 22.9807 48.7001 22.9669 48.6282C22.953 48.5562 22.9607 48.4817 22.9888 48.4141C23.017 48.3464 23.0644 48.2885 23.1253 48.2476C23.1861 48.2067 23.2576 48.1846 23.3309 48.1841Z" fill="#7B4E3A"/>
</g>
</g>
<defs>
<clipPath id="clip0_1574_5917">
<rect width="50" height="50" fill="white" transform="translate(15 19)"/>
</clipPath>
<clipPath id="clip1_1574_5917">
<rect width="38.2214" height="21.6902" fill="white" transform="translate(27 23.3101)"/>
</clipPath>
<clipPath id="clip2_1574_5917">
<rect width="12.9532" height="19" fill="white" transform="translate(19 31)"/>
</clipPath>
</defs>
</svg>
