<svg width="24" height="24" viewBox="0 0 24 24" fill="none" xmlns="http://www.w3.org/2000/svg">
<g clip-path="url(#clip0)">
<path d="M23.2715 9.41909C22.3688 7.94082 21.23 6.62035 19.9005 5.51009L22.7005 2.71009C22.8827 2.52149 22.9835 2.26889 22.9812 2.00669C22.9789 1.74449 22.8738 1.49368 22.6884 1.30827C22.503 1.12287 22.2521 1.0177 21.9899 1.01542C21.7277 1.01314 21.4751 1.11393 21.2865 1.29609L18.2415 4.34509C16.3539 3.22391 14.196 2.63956 12.0005 2.65509C5.80954 2.65509 2.28154 6.89309 0.72954 9.41909C0.250068 10.1946 -0.00390625 11.0883 -0.00390625 12.0001C-0.00390625 12.9119 0.250068 13.8056 0.72954 14.5811C1.6323 16.0594 2.77103 17.3798 4.10054 18.4901L1.30054 21.2901C1.20503 21.3823 1.12885 21.4927 1.07644 21.6147C1.02403 21.7367 0.996443 21.8679 0.995289 22.0007C0.994135 22.1335 1.01944 22.2652 1.06972 22.388C1.12 22.5109 1.19425 22.6226 1.28814 22.7165C1.38204 22.8104 1.49369 22.8846 1.61659 22.9349C1.73948 22.9852 1.87116 23.0105 2.00394 23.0093C2.13672 23.0082 2.26794 22.9806 2.38994 22.9282C2.51195 22.8758 2.62229 22.7996 2.71454 22.7041L5.76654 19.6521C7.65181 20.7731 9.80721 21.3584 12.0005 21.3451C18.1915 21.3451 21.7195 17.1071 23.2715 14.5811C23.751 13.8056 24.005 12.9119 24.005 12.0001C24.005 11.0883 23.751 10.1946 23.2715 9.41909ZM2.43354 13.5341C2.14867 13.0731 1.99779 12.542 1.99779 12.0001C1.99779 11.4582 2.14867 10.927 2.43354 10.4661C3.76754 8.30009 6.78254 4.65509 12.0005 4.65509C13.6608 4.64579 15.2978 5.04593 16.7665 5.82009L14.7535 7.83309C13.7935 7.19569 12.6424 6.91009 11.4958 7.02474C10.3491 7.13939 9.27741 7.64723 8.46254 8.46209C7.64768 9.27696 7.13983 10.3487 7.02519 11.4953C6.91054 12.642 7.19614 13.793 7.83354 14.7531L5.52354 17.0631C4.29864 16.0728 3.25338 14.879 2.43354 13.5341ZM15.0005 12.0001C15.0005 12.7957 14.6845 13.5588 14.1219 14.1214C13.5593 14.684 12.7962 15.0001 12.0005 15.0001C11.5551 14.9984 11.1157 14.8958 10.7155 14.7001L14.7005 10.7151C14.8963 11.1153 14.9988 11.5546 15.0005 12.0001ZM9.00054 12.0001C9.00054 11.2044 9.31661 10.4414 9.87922 9.87877C10.4418 9.31616 11.2049 9.00009 12.0005 9.00009C12.446 9.00182 12.8853 9.10438 13.2855 9.30009L9.30054 13.2851C9.10483 12.8849 9.00226 12.4456 9.00054 12.0001ZM21.5675 13.5341C20.2335 15.7001 17.2185 19.3451 12.0005 19.3451C10.3403 19.3544 8.7033 18.9543 7.23454 18.1801L9.24754 16.1671C10.2076 16.8045 11.3586 17.0901 12.5053 16.9754C13.652 16.8608 14.7237 16.353 15.5385 15.5381C16.3534 14.7232 16.8612 13.6515 16.9759 12.5049C17.0905 11.3582 16.8049 10.2072 16.1675 9.24709L18.4775 6.93709C19.7024 7.92737 20.7477 9.12114 21.5675 10.4661C21.8524 10.927 22.0033 11.4582 22.0033 12.0001C22.0033 12.542 21.8524 13.0731 21.5675 13.5341Z" fill="#526372"/>
</g>
<defs>
<clipPath id="clip0">
<rect width="24" height="24" fill="white"/>
</clipPath>
</defs>
</svg>
