<svg width="22" height="19" viewBox="0 0 22 19" fill="none" xmlns="http://www.w3.org/2000/svg">
<path d="M10.6462 2.37362C10.74 2.46755 10.8673 2.52033 11 2.52033C11.1327 2.52033 11.26 2.46755 11.3538 2.37362C12.425 1.30082 13.8903 0.5 15.5257 0.5C18.7696 0.5 21.5 3.0242 21.5 6.26318C21.5 8.54454 20.4772 10.4886 19.0696 12.1373C17.664 13.7837 15.8388 15.1781 14.1551 16.366L11.2403 18.4225C11.0939 18.5258 10.9061 18.5258 10.7597 18.4225L7.8449 16.366C6.16124 15.1781 4.33596 13.7837 2.93037 12.1373C1.52284 10.4886 0.5 8.54454 0.5 6.26318C0.5 3.0242 3.23043 0.5 6.47429 0.5C8.10965 0.5 9.57496 1.30082 10.6462 2.37362Z" stroke="white" stroke-linecap="round" stroke-linejoin="round"/>
</svg>
