<svg width="12" height="11" viewBox="0 0 12 11" fill="none" xmlns="http://www.w3.org/2000/svg">
<path fill-rule="evenodd" clip-rule="evenodd" d="M6.18582 0.407L7.30456 2.60175C7.41421 2.81721 7.62584 2.96661 7.87126 3.00118L10.3739 3.35493C10.9923 3.4426 11.2383 4.1785 10.7908 4.60017L8.98108 6.30781C8.80323 6.47573 8.72227 6.71712 8.76434 6.95419L9.19144 9.36502C9.29662 9.9614 8.65024 10.4164 8.09756 10.1343L5.86072 8.99521C5.64143 8.88347 5.3788 8.88347 5.15887 8.99521L2.92203 10.1343C2.36935 10.4164 1.72297 9.9614 1.82879 9.36502L2.25525 6.95419C2.29732 6.71712 2.21636 6.47573 2.03851 6.30781L0.228767 4.60017C-0.21873 4.1785 0.0273296 3.4426 0.645665 3.35493L3.14833 3.00118C3.39375 2.96661 3.60602 2.81721 3.71567 2.60175L4.83377 0.407C5.11043 -0.135667 5.90916 -0.135667 6.18582 0.407Z" fill="#FFC329"/>
</svg>
